<svg width="60" height="60" viewBox="0 0 60 60" fill="none" xmlns="http://www.w3.org/2000/svg">
<g id="cardiology">
<path id="Vector" fill-rule="evenodd" clip-rule="evenodd" d="M11.25 7.5C9.17894 7.5 7.5 9.17894 7.5 11.25V48.75C7.5 50.8211 9.17894 52.5 11.25 52.5H48.75C50.8211 52.5 52.5 50.8211 52.5 48.75V11.25C52.5 9.17894 50.8211 7.5 48.75 7.5H11.25ZM42.8418 24.8355L41.8608 24.364C45.9311 28.201 44.8942 33.9834 42.3515 38.3811C41.0264 40.6729 39.2183 42.7565 37.2383 44.2791C35.2782 45.7864 33.0293 46.8337 30.8343 46.8337C28.632 46.8337 26.4362 45.7795 24.5448 44.2781C22.6355 42.7629 20.9181 40.7016 19.656 38.4656C18.3974 36.2357 17.5484 33.7546 17.4689 31.3908C17.4224 30.0054 17.6423 28.6401 18.2116 27.4044C18.1997 27.3896 18.187 27.374 18.1734 27.3576C18.0499 27.2088 17.8596 27.0004 17.6059 26.7811C17.0947 26.3391 16.3645 25.8845 15.4272 25.7344C15.0939 25.6809 14.7964 25.495 14.6023 25.2188C14.4081 24.9425 14.334 24.5995 14.3967 24.2677C14.8146 22.0585 15.192 20.7455 15.4841 19.9598C15.6307 19.5655 15.7615 19.2889 15.8741 19.091C15.9309 18.9914 15.9852 18.9079 16.0372 18.8375C16.0635 18.802 16.0895 18.7694 16.1155 18.7391C16.1285 18.7239 16.1416 18.7094 16.1548 18.6952L16.1745 18.6745L16.1844 18.6644L16.1894 18.6594L16.1919 18.6569C16.1931 18.6558 16.1944 18.6545 17.0709 19.5456C17.4243 18.3466 17.4245 18.3467 17.4249 18.3469L17.4275 18.3476L17.433 18.3493L17.4506 18.3545L17.511 18.3731C17.5621 18.389 17.6348 18.412 17.7256 18.4421C17.9075 18.5021 18.1639 18.5904 18.4714 18.7063C19.0832 18.9366 19.9123 19.2817 20.7631 19.7372C21.4195 20.0886 22.1176 20.5207 22.7463 21.0367L21.4516 19.0425C21.0829 18.4745 21.2334 17.7162 21.7911 17.3322L25.8022 14.5706C26.3565 14.1891 27.1131 14.3146 27.5145 14.8546L28.1343 15.6887V14.4166C28.1343 13.7263 28.694 13.1666 29.3843 13.1666H34.375C35.0654 13.1666 35.625 13.7263 35.625 14.4166V16.0991C35.6493 16.1208 35.6741 16.1431 35.6995 16.1664C35.9313 16.3785 36.2075 16.6596 36.5022 17.0183C38.6086 16.6469 41.1514 16.8575 44.1835 17.9785L45.3219 18.3994L44.9347 19.5496C44.6559 20.3783 44.349 21.0364 44.0696 21.6355L44.0621 21.6517C43.7791 22.2585 43.5246 22.8064 43.293 23.4949L42.8418 24.8355ZM17.0709 19.5456L16.1944 18.6545C16.518 18.3361 16.9894 18.2185 17.4249 18.3469L17.0709 19.5456ZM20.1934 24.8255C20.715 24.4 21.2896 24.0971 21.8894 23.8897L21.9949 23.8381C21.8721 23.6622 21.7155 23.4795 21.5211 23.2906C21.0069 22.7905 20.3168 22.334 19.5833 21.9414C18.9189 21.5858 18.2576 21.3029 17.7324 21.1C17.5597 21.6127 17.3362 22.4035 17.081 23.5979C17.9934 23.938 18.7151 24.4353 19.2411 24.89C19.3664 24.9983 19.4816 25.1051 19.5868 25.208C19.7016 25.1331 19.8251 25.054 19.9566 24.9718C20.0327 24.9241 20.1117 24.8752 20.1934 24.8255ZM22.8416 26.2086C22.4148 26.4244 22.0156 26.6481 21.6601 26.8604C20.4335 27.962 19.9065 29.4906 19.9675 31.3068C20.0297 33.1606 20.7111 35.2488 21.8331 37.2367C22.9517 39.2184 24.4654 41.0235 26.0989 42.32C27.75 43.6305 29.4088 44.3337 30.8343 44.3337C32.267 44.3337 33.9876 43.6251 35.7142 42.2974C37.4209 40.985 39.0165 39.1545 40.1872 37.1297C42.5911 32.9722 42.9235 28.639 39.9818 26.0331C39.6273 25.7191 39.3826 25.5749 39.0556 25.4094C38.979 25.3705 38.8936 25.3288 38.7994 25.2826C38.5855 25.178 38.3256 25.0509 38.0176 24.885C37.251 25.2824 36.3815 25.9797 35.6005 26.7121C35.1454 27.1391 34.7555 27.544 34.4795 27.8421C34.3419 27.9908 34.2335 28.1117 34.1607 28.1945C34.1243 28.2357 34.0968 28.2674 34.079 28.288L34.0598 28.3105L34.0557 28.3151L33.8755 28.528L33.781 28.6824L32.328 33.8985L32.8368 35.0743L35.4846 34.7669L35.7729 37.2502L33.3866 37.5272L33.5404 39.7803L31.0461 39.9504L30.8259 36.7224L29.6824 34.0795L29.7389 33.8768L28.9856 34.2174L27.9311 36.8829L25.6064 35.9632L26.315 34.172L24.0846 33.6465L24.658 31.2131L27.882 31.9727L30.6134 30.7375L31.3721 28.0137C31.3086 27.9826 31.2429 27.9509 31.1749 27.9184C30.3532 27.5252 29.2304 27.0393 28.007 26.6545C26.7741 26.2668 25.4976 26.0005 24.353 26.0045C23.7874 26.0065 23.283 26.0737 22.8416 26.2086ZM32.7063 25.7917C32.7401 25.7475 32.7751 25.7021 32.8113 25.6559C33.3071 25.0204 34.0336 24.1854 34.9417 23.4216C36.4764 22.131 38.7695 20.8662 41.3811 21.5099C41.5192 21.1895 41.6571 20.8939 41.7887 20.6112L41.7962 20.5953C41.9035 20.3655 42.0065 20.1441 42.1058 19.9204C37.8468 18.666 35.1826 19.6728 33.5159 21.0511C32.0996 22.2225 31.2832 23.7638 30.8845 24.8153C31.4411 25.102 31.9894 25.3975 32.4489 25.6497C32.538 25.6987 32.624 25.7463 32.7063 25.7917ZM25.4379 21.972C25.4469 21.9268 25.4548 21.8932 25.4608 21.8699C25.6866 21.474 25.6847 20.9719 25.4235 20.5694L24.2109 18.7015L26.227 17.3135L27.5601 19.1074C27.8002 19.4305 28.1812 19.6182 28.5839 19.6116C28.9864 19.6051 29.3611 19.405 29.5905 19.0743L30.4114 17.8906C30.5565 17.6815 30.6343 17.4329 30.6343 17.1783V15.6666H33.125V16.7025C33.125 17.1128 33.3261 17.4955 33.6609 17.7284C32.7361 18.2064 31.8741 18.9125 31.1506 19.6659C30.0789 20.7819 29.1286 22.1876 28.5459 23.6362C27.2817 23.4269 26.5239 23.4241 25.9468 23.4241C25.628 23.4241 25.4641 23.4216 25.3117 23.3999C25.3371 22.6279 25.3936 22.196 25.4379 21.972Z" fill="#3FC380"/>
</g>
</svg>
