<svg width="60" height="60" viewBox="0 0 60 60" fill="none" xmlns="http://www.w3.org/2000/svg">
<g id="ears_nose_and_throat">
<path id="Vector" fill-rule="evenodd" clip-rule="evenodd" d="M7.5 11.25C7.5 9.17894 9.17894 7.5 11.25 7.5H48.75C50.8211 7.5 52.5 9.17894 52.5 11.25V48.75C52.5 50.8211 50.8211 52.5 48.75 52.5H41.25V42.5815C41.25 40.1751 42.4975 37.9908 44.0726 36.1715C45.3189 34.732 46.2866 33.0886 46.8488 31.3296C47.7851 28.3991 47.7101 25.2707 46.6343 22.3817C45.5584 19.4926 43.5353 16.9873 40.8477 15.2155C38.1602 13.4439 34.9426 12.4945 31.6444 12.5C28.2361 12.5244 24.9252 13.5564 22.194 15.4457C19.4626 17.335 17.4535 19.983 16.4593 23.004C16.1384 24.127 15.7819 27.4301 15.7819 27.4301C15.2116 28.8505 14.6056 30.2378 13.9996 31.6251L13.1441 33.64C12.8249 34.1858 12.6079 34.7776 12.5025 35.3906C12.4793 35.7978 12.6194 36.1982 12.8958 36.5154C13.1721 36.8325 13.5654 37.0436 13.9996 37.1082C14.1423 37.1082 17.5 37.5 17.5 37.5V41.25C17.5 42.5 18.25 45 21.25 45H23.75V52.5H11.25C9.17894 52.5 7.5 50.8211 7.5 48.75V11.25ZM16.25 36.125C16.25 33.625 20 28.75 25.625 28.75C27.764 28.75 29.1461 29.7244 30.2361 30.4929C30.9459 30.9932 31.5317 31.4062 32.1221 31.4062C33.2734 31.4062 34.1958 31.047 34.8932 30.6028C35.6128 30.1444 36.6908 30.2565 37.0723 31.0196C37.3208 31.5164 37.1819 32.1197 36.7362 32.4511C36.6659 32.5035 36.5964 32.5551 36.528 32.6059C34.3858 34.1961 33.2267 35.0564 33.2267 38.3125V52.5H30V44.375C30 42.0913 28.6641 39.979 26.4385 39.4674C24.1081 38.9316 21.0759 38.671 18.7501 40V37.5C22.106 35.822 26.0252 36.3965 28.2396 36.9557C29.097 37.1724 29.9562 36.5028 29.4949 35.7484C28.5319 34.1737 26.3005 33.125 23.75 33.125C19.3314 33.125 17.5 36.25 17.5 36.25L16.25 36.125Z" fill="#3FC380"/>
<path id="Vector_2" fill-rule="evenodd" clip-rule="evenodd" d="M35.9242 28.3416C35.9211 28.345 35.918 28.3485 35.9147 28.3519C35.9139 28.3529 35.9147 28.352 35.9147 28.3519C35.9151 28.3515 35.916 28.3505 35.9165 28.35L35.92 28.3463L35.9222 28.3437L35.9242 28.3416ZM35 27.5C34.0751 26.6591 34.0754 26.6588 34.0757 26.6584L34.0781 26.6558L34.0817 26.6519L34.0901 26.6429L34.1125 26.6193C34.1297 26.6014 34.1519 26.5789 34.1789 26.5525C34.2326 26.4999 34.3059 26.4316 34.3981 26.353C34.5821 26.1964 34.8455 25.9956 35.1842 25.7969C35.8626 25.3989 36.8604 25 38.125 25C40.402 25 42.5 26.8885 42.5 30.0625C42.5 32.7286 41.305 34.6042 39.9377 35.7885C39.2636 36.3725 38.5479 36.7901 37.9076 37.0648C37.2967 37.3267 36.6577 37.5 36.1364 37.5C35.446 37.5 34.8864 36.9404 34.8864 36.25C34.8864 35.5596 35.446 35 36.1364 35C36.136 35 36.136 35 36.1364 35C36.139 34.9999 36.1592 34.9991 36.1992 34.9932C36.2436 34.9868 36.3029 34.9753 36.3762 34.9568C36.5239 34.9195 36.7101 34.8581 36.922 34.7673C37.347 34.5849 37.8386 34.2994 38.3009 33.899C39.2064 33.1145 40 31.8964 40 30.0625C40 28.1115 38.8686 27.5 38.125 27.5C37.401 27.5 36.8362 27.7261 36.4492 27.9531C36.2554 28.0669 36.1102 28.1786 36.0191 28.2564C35.9737 28.295 35.9427 28.3243 35.9266 28.34L35.9147 28.3519C35.4491 28.8521 34.6662 28.886 34.1591 28.4249C33.6484 27.9605 33.6114 27.1691 34.0757 26.6584L35 27.5Z" fill="#3FC380"/>
</g>
</svg>
