<svg width="60" height="60" viewBox="0 0 60 60" fill="none" xmlns="http://www.w3.org/2000/svg">
<g id="gastroenterology">
<path id="Vector" fill-rule="evenodd" clip-rule="evenodd" d="M21.6454 13.424V13.4256C21.6875 17.9353 22.2712 20.1459 23.4177 21.3272C24.4247 22.365 26.1224 22.8672 29.3104 22.9615C29.5627 20.4167 30.5776 18.3862 32.069 16.9396C33.7854 15.2747 36.0584 14.4565 38.3081 14.4565C40.558 14.4565 42.8309 15.2747 44.5474 16.9396C46.2785 18.6187 47.3675 21.0846 47.3675 24.228V34.6432C47.3675 37.5866 46.8787 40.7009 45.3646 43.1182C43.7939 45.6259 41.1955 47.2554 37.3528 47.2554C33.3986 47.2554 30.6538 44.902 28.2284 42.8094L28.1511 42.7426C25.6818 40.6119 23.4614 38.6958 20.3127 38.2607C18.9905 38.2746 18.0715 38.6291 17.411 39.1129C16.7254 39.6151 16.2333 40.3196 15.8851 41.1344C15.1735 42.7999 15.15 44.719 15.1844 45.5436C15.1912 45.7071 15.1947 47.4787 15.1972 49.1436C15.1984 49.9907 15.1994 50.8296 15.1999 51.4566L15.2007 52.498L13.9902 52.5H48.75C50.8211 52.5 52.5 50.8211 52.5 48.75V11.25C52.5 9.17894 50.8211 7.5 48.75 7.5H21.6429L21.6451 13.3372L21.6453 13.3997V13.4185L21.6454 13.424ZM11.25 52.5H12.7007L12.6999 51.459C12.6994 50.8321 12.6984 49.9937 12.6972 49.1472C12.696 48.3006 12.6944 47.4465 12.6925 46.788C12.6915 46.4585 12.6905 46.179 12.6892 45.9741C12.6887 45.8715 12.6881 45.7889 12.6875 45.7286L12.6866 45.6536L12.6865 45.6464C12.6865 45.6455 12.6865 45.646 12.6866 45.6478C12.6476 44.7129 12.6515 42.3394 13.5863 40.152C14.0613 39.0404 14.7971 37.9285 15.9338 37.096C17.0825 36.2546 18.5567 35.7604 20.3927 35.7604C20.8862 35.7604 21.3426 35.7715 21.7764 35.782C22.5663 35.8011 23.2813 35.8185 24.0103 35.7639C25.0744 35.6841 25.9108 35.4549 26.591 34.945C27.8741 33.9832 29.0929 31.6265 29.2351 25.4613C25.9254 25.3667 23.3438 24.8407 21.6236 23.0684C19.7113 21.0978 19.1871 17.9131 19.1455 13.449C19.1437 13.2724 19.143 8.53446 19.1428 7.5H11.25C9.17894 7.5 7.5 9.17894 7.5 11.25V48.75C7.5 50.8211 9.17894 52.5 11.25 52.5ZM31.2884 30.583C34.2825 29.1361 36.5874 30.3064 38.7625 31.4109C40.7622 32.4263 42.6524 33.386 44.8675 32.2046V24.228C44.8675 21.6905 44.0041 19.8955 42.8067 18.7341C41.5947 17.5585 39.963 16.9565 38.3081 16.9565C36.6534 16.9565 35.0216 17.5585 33.8096 18.7341C32.6123 19.8955 31.7489 21.6905 31.7489 24.228C31.7489 26.7416 31.5948 28.84 31.2884 30.583Z" fill="#3FC380"/>
</g>
</svg>
