<svg width="88" height="88" viewBox="0 0 88 88" fill="none" xmlns="http://www.w3.org/2000/svg">
<g id="Group 38" filter="url(#filter0_d_340_16080)">
<circle id="Ellipse 7" cx="44" cy="41" r="40" fill="#FAFAFA"/>
<g id="Group">
<path id="Vector" d="M56.388 25.3592L52.3686 21.3315C51.9267 20.8895 51.2095 20.8895 50.7675 21.3315C50.3256 21.7734 50.3256 22.4906 50.7675 22.9326L51.6765 23.8415L51.0594 24.4586C50.6508 24.0917 50.017 24.1084 49.6251 24.5003L48.5661 25.5593H48.4743C47.3736 25.5593 46.3229 26.0013 45.5474 26.7768C44.7718 27.5524 44.3382 28.6031 44.3299 29.7038V29.7955L38.9929 35.1325C38.601 35.5244 38.5843 36.1582 38.9512 36.5668L38.4259 37.0921C38.3341 37.1839 38.2841 37.309 38.2841 37.4424C38.2841 37.5758 38.3341 37.7009 38.4259 37.7926L39.9436 39.3103C40.0353 39.402 40.1604 39.4521 40.2938 39.4521C40.4272 39.4521 40.5523 39.402 40.644 39.3103L41.161 38.7933L41.2444 38.8767C41.4362 39.0768 41.7031 39.1852 41.9866 39.1852C42.2701 39.1852 42.5286 39.0768 42.7288 38.8767L47.7989 33.8066C48.1908 33.8733 48.5827 33.8816 48.9747 33.8316C50.3673 36.4584 50.8092 38.7766 50.2839 40.7363C49.9587 41.9538 49.2582 43.0295 48.1991 43.9384C47.7905 44.2887 47.3486 44.5972 46.8732 44.8557H32.7804C32.1466 44.8557 31.5545 45.1976 31.2377 45.748C30.9208 46.2984 30.9208 46.9822 31.2377 47.5325C31.5545 48.0829 32.1466 48.4248 32.7804 48.4248H45.8809L48.466 57.7645H43.8462V55.9716H44.7968C44.9886 55.9716 45.1721 55.8965 45.3055 55.7631C45.4389 55.6297 45.514 55.4462 45.514 55.2544V55.0126C45.514 54.8208 45.4389 54.6374 45.3055 54.5039C45.1721 54.3705 44.9886 54.2955 44.7968 54.2955H40.9776C40.5773 54.2955 40.2604 54.6207 40.2604 55.0126V55.2544C40.2604 55.4462 40.3355 55.6297 40.4689 55.7631C40.6023 55.8965 40.7858 55.9716 40.9776 55.9716H41.9449V57.7645H39.0763C38.2174 57.7645 37.3918 58.1064 36.7914 58.7151C36.1827 59.3239 35.8408 60.1411 35.8408 61H55.5875C55.5875 60.1411 55.2456 59.3155 54.6368 58.7151C54.0281 58.1064 53.2109 57.7645 52.352 57.7645H51.8433L49.0664 47.716C50.4673 46.8571 52.8273 44.9725 53.7196 41.7286C54.5284 38.7933 53.953 35.4994 51.9934 31.9136C52.5187 31.0631 52.7272 30.0457 52.5604 29.0617L53.3526 28.2695C53.5528 28.0777 53.6612 27.8109 53.6612 27.5273C53.6612 27.2438 53.5528 26.9853 53.3526 26.7852L53.2692 26.7018L53.8863 26.0847L54.7869 26.9853C55.2289 27.4273 55.9461 27.4273 56.388 26.9853C56.83 26.5183 56.83 25.8012 56.388 25.3592ZM51.9017 29.7038C51.9017 30.5877 51.5598 31.4467 50.9427 32.0804C50.3256 32.7225 49.4917 33.0978 48.5994 33.1311C48.5577 33.1311 48.516 33.1311 48.4743 33.1311H48.466C47.4403 33.1311 46.4646 32.6641 45.8142 31.8636C45.1638 31.0631 44.9052 30.0207 45.1137 29.0117C45.2471 28.3529 45.5724 27.7525 46.0477 27.2772C46.523 26.8018 47.1234 26.4766 47.7822 26.3432C48.7912 26.1347 49.8336 26.3932 50.6341 27.0437C51.4347 27.6941 51.8933 28.6614 51.9017 29.6955V29.7038Z" fill="#3FC380"/>
<path id="Vector_2" d="M48.4744 27.7861C47.9407 27.7861 47.432 28.0113 47.0651 28.4032C46.7065 28.7952 46.523 29.3205 46.5647 29.8542C46.6064 30.3879 46.8733 30.8799 47.2986 31.2051C47.7239 31.5303 48.2575 31.6721 48.7912 31.5804C49.3166 31.4886 49.7836 31.1884 50.0754 30.7381C50.3673 30.2878 50.459 29.7375 50.3256 29.2204C50.2172 28.8118 49.9837 28.4449 49.6418 28.1864C49.3166 27.9279 48.8996 27.7861 48.4744 27.7861Z" fill="#3FC380"/>
</g>
</g>
<defs>
<filter id="filter0_d_340_16080" x="0" y="0" width="88" height="88" filterUnits="userSpaceOnUse" color-interpolation-filters="sRGB">
<feFlood flood-opacity="0" result="BackgroundImageFix"/>
<feColorMatrix in="SourceAlpha" type="matrix" values="0 0 0 0 0 0 0 0 0 0 0 0 0 0 0 0 0 0 127 0" result="hardAlpha"/>
<feOffset dy="3"/>
<feGaussianBlur stdDeviation="2"/>
<feComposite in2="hardAlpha" operator="out"/>
<feColorMatrix type="matrix" values="0 0 0 0 0 0 0 0 0 0 0 0 0 0 0 0 0 0 0.1 0"/>
<feBlend mode="normal" in2="BackgroundImageFix" result="effect1_dropShadow_340_16080"/>
<feBlend mode="normal" in="SourceGraphic" in2="effect1_dropShadow_340_16080" result="shape"/>
</filter>
</defs>
</svg>
