<svg width="26" height="20" viewBox="0 0 26 20" fill="none" xmlns="http://www.w3.org/2000/svg">
<g id="Group">
<path id="Vector" d="M9.673 7.80099C9.7477 7.69142 9.8772 7.63165 10.0067 7.6466C10.1412 7.66154 10.2507 7.74621 10.3005 7.87072L11.9342 11.9L13.5927 6.87959C13.6425 6.73017 13.777 6.63056 13.9363 6.63056C14.0907 6.63056 14.2302 6.73017 14.28 6.87959L15.6596 11.1479L16.1079 10.0671C16.1626 9.93266 16.2971 9.848 16.4416 9.848H23.3894C23.9323 8.7722 24.2411 7.75617 24.3307 6.81983C24.3656 6.56582 24.3805 6.31181 24.3805 6.0578C24.3805 2.935 21.8454 0.399902 18.7226 0.399902C16.2772 0.399902 14.1903 1.95383 13.4034 4.13033C12.6115 1.95383 10.5296 0.399902 8.0842 0.399902C4.9614 0.399902 2.4263 2.935 2.4263 6.0578C2.4263 6.51601 2.48109 6.96924 2.59066 7.41749C2.71019 8.04006 2.91938 8.69251 3.22319 9.36986L0.2 10.0871H3.57183H8.12405L9.673 7.80099Z" fill="#0D2D2F"/>
<path id="Vector_2" d="M25.8 10.5701H22.9959H16.6806L15.9485 12.3232C15.8887 12.4627 15.7542 12.5473 15.5998 12.5424C15.4504 12.5374 15.3209 12.4378 15.2711 12.2933L13.9313 8.14453L12.3077 13.0454C12.2579 13.1898 12.1284 13.2894 11.979 13.2944H11.969C11.8246 13.2944 11.6901 13.2048 11.6353 13.0703L9.89212 8.76212L8.61211 10.6497C8.54737 10.7494 8.43282 10.8091 8.31328 10.8091H3.98021C5.64869 13.5584 8.74161 16.6662 13.4183 19.9036C17.597 17.0099 20.5106 14.2208 22.2737 11.6957L25.8 10.5701Z" fill="#0D2D2F"/>
</g>
</svg>
