<svg width="88" height="88" viewBox="0 0 88 88" fill="none" xmlns="http://www.w3.org/2000/svg">
<g id="Group 39" filter="url(#filter0_d_340_16085)">
<circle id="Ellipse 8" cx="44" cy="41" r="40" fill="#FAFAFA"/>
<g id="Group">
<path id="Vector" d="M60.6983 32.2407C59.215 30.7659 57.2116 29.939 55.123 29.939C53.0344 29.939 51.0311 30.7659 49.5477 32.2407L35.7034 46.0851C33.7341 48.0799 32.9669 50.9783 33.7 53.6807C34.4332 56.3916 36.5473 58.5058 39.2582 59.2389C41.9691 59.9721 44.8591 59.2048 46.8539 57.2356L60.6983 43.3912C62.1731 41.9079 63 39.9045 63 37.8159C63 35.7274 62.1731 33.724 60.6983 32.2407ZM59.6071 42.3L52.6849 49.2222L43.7253 40.2626L50.6475 33.3404C51.8324 32.1554 53.4436 31.4905 55.123 31.4905C56.8024 31.4905 58.4136 32.1554 59.5986 33.3404C62.0708 35.8126 62.0708 39.8278 59.6071 42.3Z" fill="#3FC380"/>
<path id="Vector_2" d="M59.1893 36.3667L58.064 37.1851L58.0555 37.1766C58.0811 37.2192 58.6864 38.1228 58.0044 39.4271C57.9191 39.5891 57.9021 39.7852 57.9618 39.9557C58.0214 40.1347 58.1408 40.2796 58.3027 40.3649C58.6437 40.5439 59.0615 40.4075 59.2405 40.0665C60.3402 37.9779 59.2405 36.4349 59.1893 36.3667Z" fill="#3FC380"/>
<path id="Vector_3" d="M27.5195 31.1583C26.3004 32.3774 25.5673 34.0056 25.465 35.7276C25.3627 37.4496 25.8913 39.1546 26.9569 40.5101L36.8713 30.5957C35.5158 29.53 33.8109 29.0015 32.0888 29.1038C30.3668 29.2146 28.7471 29.9392 27.5195 31.1583Z" fill="#3FC380"/>
<path id="Vector_4" d="M38.0732 31.7974L28.1588 41.7118C29.9831 43.144 32.3956 43.5873 34.6121 42.8967C36.8285 42.2062 38.5591 40.4672 39.2496 38.2507C39.9486 36.0342 39.5054 33.6217 38.0732 31.7974Z" fill="#3FC380"/>
<path id="Vector_5" d="M46.9219 30.6041L40.5453 24.2275C39.6246 25.404 39.3433 26.9555 39.7866 28.3792C40.2299 29.8028 41.3467 30.9196 42.7703 31.3629C44.194 31.8147 45.7455 31.5248 46.9219 30.6041Z" fill="#3FC380"/>
<path id="Vector_6" d="M47.3314 23.8182C46.5471 23.0339 45.4985 22.565 44.3903 22.4968C43.2821 22.4286 42.1909 22.7696 41.3128 23.4516L47.6894 29.8282C48.3714 28.9587 48.7124 27.859 48.6442 26.7508C48.5845 25.651 48.1157 24.6025 47.3314 23.8182Z" fill="#3FC380"/>
</g>
</g>
<defs>
<filter id="filter0_d_340_16085" x="0" y="0" width="88" height="88" filterUnits="userSpaceOnUse" color-interpolation-filters="sRGB">
<feFlood flood-opacity="0" result="BackgroundImageFix"/>
<feColorMatrix in="SourceAlpha" type="matrix" values="0 0 0 0 0 0 0 0 0 0 0 0 0 0 0 0 0 0 127 0" result="hardAlpha"/>
<feOffset dy="3"/>
<feGaussianBlur stdDeviation="2"/>
<feComposite in2="hardAlpha" operator="out"/>
<feColorMatrix type="matrix" values="0 0 0 0 0 0 0 0 0 0 0 0 0 0 0 0 0 0 0.1 0"/>
<feBlend mode="normal" in2="BackgroundImageFix" result="effect1_dropShadow_340_16085"/>
<feBlend mode="normal" in="SourceGraphic" in2="effect1_dropShadow_340_16085" result="shape"/>
</filter>
</defs>
</svg>
