<svg width="17" height="26" viewBox="0 0 17 26" fill="none" xmlns="http://www.w3.org/2000/svg">
<g id="Group">
<path id="Vector" d="M16.2483 2.99008L13.6759 0.412339C13.3931 0.129481 12.9341 0.129481 12.6512 0.412339C12.3684 0.695197 12.3684 1.15417 12.6512 1.43703L13.233 2.01876L12.838 2.41369C12.5765 2.17887 12.1709 2.18954 11.9201 2.44038L11.2423 3.11817H11.1836C10.4791 3.11817 9.80664 3.40103 9.3103 3.89737C8.81397 4.3937 8.53645 5.06616 8.53111 5.77063V5.82934L5.11546 9.24499C4.86463 9.49582 4.85395 9.90143 5.08878 10.1629L4.75255 10.4992C4.69384 10.5579 4.66182 10.6379 4.66182 10.7233C4.66182 10.8087 4.69384 10.8888 4.75255 10.9475L5.72388 11.9188C5.78258 11.9775 5.86264 12.0095 5.94803 12.0095C6.03342 12.0095 6.11347 11.9775 6.17218 11.9188L6.50307 11.5879L6.55644 11.6413C6.67919 11.7694 6.84997 11.8387 7.03143 11.8387C7.21288 11.8387 7.37833 11.7694 7.50642 11.6413L10.7513 8.39641C11.0021 8.43911 11.253 8.44444 11.5038 8.41242C12.3951 10.0936 12.6779 11.5772 12.3417 12.8314C12.1335 13.6106 11.6852 14.2991 11.0075 14.8808C10.7459 15.105 10.4631 15.3024 10.1589 15.4679H1.13944C0.73383 15.4679 0.354907 15.6867 0.152103 16.0389C-0.050701 16.3912 -0.050701 16.8288 0.152103 17.181C0.354907 17.5333 0.73383 17.7521 1.13944 17.7521H9.52378L11.1782 23.7295H8.22157V22.582H8.82998C8.95273 22.582 9.07014 22.534 9.15553 22.4486C9.24092 22.3632 9.28896 22.2458 9.28896 22.123V21.9683C9.28896 21.8455 9.24092 21.7281 9.15553 21.6427C9.07014 21.5573 8.95273 21.5093 8.82998 21.5093H6.38566C6.12948 21.5093 5.92668 21.7174 5.92668 21.9683V22.123C5.92668 22.2458 5.97471 22.3632 6.0601 22.4486C6.14549 22.534 6.26291 22.582 6.38566 22.582H7.00474V23.7295H5.16883C4.61913 23.7295 4.09077 23.9483 3.70651 24.3379C3.31691 24.7275 3.0981 25.2505 3.0981 25.8002H15.736C15.736 25.2505 15.5172 24.7221 15.1276 24.3379C14.738 23.9483 14.215 23.7295 13.6653 23.7295H13.3397L11.5625 17.2984C12.4591 16.7487 13.9695 15.5426 14.5405 13.4665C15.0582 11.5879 14.6899 9.47981 13.4358 7.18492C13.772 6.64056 13.9054 5.98945 13.7987 5.35969L14.3057 4.85268C14.4338 4.72993 14.5032 4.55915 14.5032 4.37769C14.5032 4.19623 14.4338 4.03079 14.3057 3.9027L14.2523 3.84933L14.6473 3.4544L15.2236 4.03079C15.5065 4.31365 15.9655 4.31365 16.2483 4.03079C16.5312 3.73192 16.5312 3.27294 16.2483 2.99008ZM13.3771 5.77063C13.3771 6.33635 13.1582 6.88605 12.7633 7.29166C12.3684 7.70261 11.8347 7.94277 11.2636 7.96412C11.2369 7.96412 11.2103 7.96412 11.1836 7.96412H11.1782C10.5218 7.96412 9.89737 7.66525 9.48109 7.1529C9.0648 6.64056 8.89936 5.97344 9.03278 5.32767C9.11817 4.90605 9.32632 4.52179 9.63052 4.21758C9.93473 3.91338 10.319 3.70523 10.7406 3.61984C11.3864 3.48642 12.0535 3.65187 12.5658 4.06815C13.0782 4.48443 13.3717 5.10352 13.3771 5.7653V5.77063Z" fill="#0D2D2F"/>
<path id="Vector_2" d="M11.1836 4.54297C10.842 4.54297 10.5165 4.68707 10.2816 4.9379C10.0521 5.18874 9.93473 5.52497 9.96141 5.86653C9.9881 6.2081 10.1589 6.52298 10.4311 6.73112C10.7033 6.93926 11.0448 7.02999 11.3864 6.97128C11.7226 6.91257 12.0215 6.72044 12.2083 6.43225C12.3951 6.14405 12.4538 5.79181 12.3684 5.46092C12.299 5.19941 12.1496 4.96459 11.9307 4.79914C11.7226 4.6337 11.4558 4.54297 11.1836 4.54297Z" fill="#0D2D2F"/>
</g>
</svg>
