<svg width="60" height="60" viewBox="0 0 60 60" fill="none" xmlns="http://www.w3.org/2000/svg">
<g id="gynecology">
<path id="Vector" fill-rule="evenodd" clip-rule="evenodd" d="M11.25 7.5C9.17894 7.5 7.5 9.17894 7.5 11.25V48.75C7.5 50.8211 9.17894 52.5 11.25 52.5H48.75C50.8211 52.5 52.5 50.8211 52.5 48.75V11.25C52.5 9.17894 50.8211 7.5 48.75 7.5H11.25ZM13.1114 19.8938C12.5058 20.4998 12.3386 21.2171 12.6879 21.8326C13.114 22.5838 13.5882 23.2409 14.0357 23.7865C13.5954 23.8511 13.2063 24.0408 12.9103 24.3634C12.5874 24.7154 12.4155 25.1821 12.3835 25.7056C11.7834 25.0101 11.1118 24.1211 10.5134 23.0664C9.42101 21.1409 10.2496 19.2206 11.3432 18.1265C11.8976 17.5717 12.6013 17.1313 13.3474 16.9404C14.093 16.7496 15.0388 16.783 15.791 17.4459C17.0969 18.5968 17.7001 18.6961 18.0275 18.7276C18.0834 18.733 18.1573 18.7342 18.2465 18.7356C18.71 18.7434 19.5866 18.7577 20.4904 19.395L19.0499 21.4383C18.8092 21.2686 18.762 21.2671 18.4756 21.2586C18.3289 21.2543 18.1191 21.248 17.7884 21.2161C16.7984 21.121 15.7248 20.7153 14.1582 19.3393C14.1316 19.3356 14.073 19.3352 13.967 19.3624C13.7285 19.4234 13.4065 19.5985 13.1114 19.8938ZM14.1762 19.3442C14.1759 19.3448 14.1718 19.344 14.1646 19.3404C14.173 19.342 14.1765 19.3438 14.1762 19.3442ZM19.1068 26.262C20.7543 27.8251 21.2137 29.9615 20.133 31.0336C19.0524 32.1059 16.8407 31.7079 15.1933 30.1448C13.5458 28.5816 13.0862 26.4452 14.167 25.3731C15.2478 24.3009 17.4593 24.6989 19.1068 26.262ZM46.2991 19.8631C46.8552 20.4587 47.0406 21.2096 46.6937 21.8641C46.305 22.5978 45.8738 23.2411 45.4651 23.7782C45.9004 23.8336 46.2853 24.0255 46.5747 24.3634C46.8904 24.7319 47.0515 25.2259 47.0701 25.7792C47.6526 25.0681 48.3158 24.1424 48.9026 23.0349C49.9025 21.1483 49.1578 19.2615 48.1265 18.157C47.6061 17.5998 46.9349 17.145 46.2074 16.9457C45.4696 16.7437 44.5304 16.7836 43.7981 17.4745C42.5811 18.6226 42.0397 18.7015 41.7784 18.7284C41.7341 18.733 41.6723 18.7339 41.5955 18.735C41.172 18.7414 40.294 18.7545 39.4137 19.4189L40.9199 21.4142C41.1159 21.2664 41.13 21.266 41.3613 21.2596C41.4921 21.256 41.6924 21.2505 42.0344 21.2153C42.9966 21.1163 44.0141 20.6955 45.4642 19.3394C45.4832 19.3418 45.5103 19.3469 45.547 19.357C45.7393 19.4096 46.0259 19.5705 46.2991 19.8631ZM45.4276 19.3384C45.428 19.3387 45.4319 19.3389 45.4388 19.3372C45.4308 19.3372 45.4274 19.338 45.4276 19.3384ZM40.1894 26.262C38.5419 27.8251 38.0824 29.9615 39.163 31.0336C40.2438 32.1059 42.4554 31.7079 44.1029 30.1448C45.7504 28.5816 46.2097 26.4452 45.1291 25.3731C44.0484 24.3009 41.8368 24.6989 40.1894 26.262ZM25.059 27.5533C21.6732 27.5533 16.5946 17.5 30.1376 17.5C43.6806 17.5 38.0376 27.5533 34.6519 27.5533C33.0395 27.5533 32.9154 31.2265 32.7851 35.0744C32.6886 37.93 32.5888 40.8819 31.875 42.5C31.6515 43.0066 31.2693 42.8551 30.8444 42.6866C30.6151 42.5957 30.3734 42.5 30.1376 42.5C29.9131 42.5 29.6556 42.5869 29.3985 42.6736C28.8849 42.8469 28.3724 43.0197 28.125 42.5C27.3459 40.863 27.1905 37.8608 27.0412 34.9741C26.8441 31.1629 26.6574 27.5533 25.059 27.5533Z" fill="#3FC380"/>
</g>
</svg>
