<svg width="60" height="60" viewBox="0 0 60 60" fill="none" xmlns="http://www.w3.org/2000/svg">
<g id="hepatology">
<path id="Vector" fill-rule="evenodd" clip-rule="evenodd" d="M7.5 11.25C7.5 9.17894 9.17894 7.5 11.25 7.5H48.75C50.8211 7.5 52.5 9.17894 52.5 11.25V48.75C52.5 50.8211 50.8211 52.5 48.75 52.5H27.5152V36.25H25.0152V52.5H11.25C9.17894 52.5 7.5 50.8211 7.5 48.75V11.25ZM14.4403 43.75C9.73235 43.75 10.894 28.5267 13.6981 22.6339C16.5024 16.7411 20.3397 16.25 28.1862 16.25C32.9929 16.25 34.2118 17.0201 35.1561 17.6167C35.7535 17.9943 36.241 18.3022 37.457 18.3022C38.7124 18.3022 40.4701 17.9082 42.2277 17.5141C44.8641 16.9231 47.5006 16.3321 48.4421 17.0709C50.0115 18.3022 45.3035 27.3321 40.5956 27.3321C38.1724 27.3321 36.7191 29.1574 35.3088 30.929C33.9791 32.5993 32.6874 34.2217 30.6566 34.2217C28.5641 34.2217 27.2564 34.962 25.9486 35.7022C24.6409 36.4426 23.3331 37.1829 21.2406 37.1829C19.5246 37.1829 18.9575 38.6251 18.3547 40.1578C17.6712 41.8958 16.942 43.75 14.4403 43.75Z" fill="#3FC380"/>
<path id="Vector_2" fill-rule="evenodd" clip-rule="evenodd" d="M27.5914 18.7839C28.3186 16.7107 29.8233 14.1876 32.8935 12.5129L34.0906 14.7076C31.6978 16.0128 30.5299 17.9597 29.9505 19.6114C29.6595 20.4408 29.5205 21.1884 29.4548 21.7246C29.422 21.9917 29.4078 22.2034 29.4015 22.3432C29.3985 22.4129 29.3975 22.4644 29.3971 22.4956L29.397 22.5267C29.397 22.5292 29.397 22.5303 29.397 22.5301V22.5288V22.5273V22.5263C29.397 22.5258 29.3969 22.5253 28.1471 22.5501C26.8974 22.5749 26.8974 22.5743 26.8974 22.5737V22.5723V22.5693L26.8973 22.5614L26.897 22.5392C26.8969 22.5216 26.897 22.4981 26.8973 22.4693C26.8979 22.4117 26.8996 22.3322 26.904 22.2332C26.9128 22.0353 26.9319 21.7582 26.9734 21.4201C27.0561 20.7456 27.229 19.8169 27.5914 18.7839Z" fill="#3FC380"/>
<path id="Vector_3" d="M17.8396 31.572C20.6875 33.6602 26.3834 31.572 26.3834 31.572V28.4392C26.3834 28.4392 23.5355 31.0501 20.2129 28.4392C16.8902 25.8285 14.9916 29.4837 17.8396 31.572Z" fill="#3FC380"/>
<path id="Vector_4" fill-rule="evenodd" clip-rule="evenodd" d="M26.3113 25.7857C26.9861 25.1951 27.8891 24.7935 28.7485 24.7935V27.2935C28.6146 27.2935 28.276 27.3885 27.9575 27.6671C27.6628 27.9251 27.5153 28.2252 27.5153 28.5268V36.2498L25.0153 36.25V28.5268C25.0153 27.3383 25.6128 26.3968 26.3113 25.7857Z" fill="#3FC380"/>
</g>
</svg>
