<svg width="12" height="12" viewBox="0 0 12 12" fill="none" xmlns="http://www.w3.org/2000/svg">
<g id="building/hospital" clip-path="url(#clip0_651_598)">
<path id="Vector" d="M11 11.375H1C0.795 11.375 0.625 11.205 0.625 11C0.625 10.795 0.795 10.625 1 10.625H11C11.205 10.625 11.375 10.795 11.375 11C11.375 11.205 11.205 11.375 11 11.375Z" fill="white"/>
<path id="Vector_2" d="M10.5 11.375H1.5C1.295 11.375 1.125 11.205 1.125 11V3C1.125 1.49 1.99 0.625 3.5 0.625H8.5C10.01 0.625 10.875 1.49 10.875 3V11C10.875 11.205 10.705 11.375 10.5 11.375ZM1.875 10.625H10.125V3C10.125 1.89 9.61 1.375 8.5 1.375H3.5C2.39 1.375 1.875 1.89 1.875 3V10.625Z" fill="white"/>
<path id="Vector_3" d="M7.5 11.375H4.5C4.295 11.375 4.125 11.205 4.125 11V7.97C4.125 7.505 4.505 7.125 4.97 7.125H7.035C7.5 7.125 7.88 7.505 7.88 7.97V11C7.875 11.205 7.705 11.375 7.5 11.375ZM4.875 10.625H7.125V7.97C7.125 7.92 7.085 7.875 7.03 7.875H4.96499C4.91499 7.875 4.87001 7.915 4.87001 7.97V10.625H4.875Z" fill="white"/>
<path id="Vector_4" d="M6 5.875C5.795 5.875 5.625 5.705 5.625 5.5V3C5.625 2.795 5.795 2.625 6 2.625C6.205 2.625 6.375 2.795 6.375 3V5.5C6.375 5.705 6.205 5.875 6 5.875Z" fill="white"/>
<path id="Vector_5" d="M7.25 4.625H4.75C4.545 4.625 4.375 4.455 4.375 4.25C4.375 4.045 4.545 3.875 4.75 3.875H7.25C7.455 3.875 7.625 4.045 7.625 4.25C7.625 4.455 7.455 4.625 7.25 4.625Z" fill="white"/>
</g>
<defs>
<clipPath id="clip0_651_598">
<rect width="12" height="12" fill="white"/>
</clipPath>
</defs>
</svg>
