<svg width="132" height="131" viewBox="0 0 132 131" fill="none" xmlns="http://www.w3.org/2000/svg">
<g id="Hospital" clip-path="url(#clip0_355_17051)">
<path id="Vector" d="M19.6978 45.8494C19.6978 45.0945 19.6978 44.4954 19.6978 43.8923C19.6978 35.0384 19.6978 26.1844 19.6978 17.3263C19.6978 14.1589 20.785 13.0676 23.936 13.0635C29.0072 13.0553 34.0783 13.0635 39.3915 13.0635C39.3915 12.0501 39.3833 11.1475 39.3915 10.2489C39.4489 4.11926 43.4779 0.0410285 49.6158 0.0246171C60.2832 -0.00820571 70.9506 -0.00820571 81.618 0.0246171C87.7641 0.0410285 91.789 4.10285 91.8506 10.2448C91.8588 11.1064 91.8506 11.968 91.8506 12.9773C92.5193 13.0101 93.0609 13.0635 93.6025 13.0635C98.2182 13.0717 102.834 13.0594 107.45 13.0717C110.404 13.0799 111.536 14.2164 111.54 17.1704C111.548 26.0777 111.54 34.9809 111.54 43.8882C111.54 44.4872 111.54 45.0904 111.54 45.8494H113.354C117.867 45.8494 122.38 45.8494 126.893 45.8494C130.2 45.8494 131.23 46.8628 131.234 50.141C131.234 75.6812 131.234 101.221 131.234 126.766C131.234 127.123 131.238 127.484 131.213 127.841C131.082 129.703 129.946 130.844 128.083 130.975C127.623 131.008 127.16 130.996 126.7 130.996C85.9794 130.996 45.2586 130.996 4.54185 130.996C3.92642 130.996 3.30279 131.029 2.69967 130.926C1.22675 130.676 0.328222 129.773 0.0697422 128.309C-0.0328291 127.71 -6.28503e-06 127.086 -6.28503e-06 126.47C-6.28503e-06 101.135 -6.28503e-06 75.7961 -6.28503e-06 50.461C-6.28503e-06 46.7602 0.91493 45.8535 4.64032 45.8535C9.05089 45.8535 13.4615 45.8535 17.872 45.8535H19.6937L19.6978 45.8494ZM26.2952 124.37H49.2383C49.2383 123.722 49.2383 123.168 49.2383 122.614C49.2383 114.732 49.2301 106.851 49.2424 98.9649C49.2465 96.1011 50.383 94.9851 53.2755 94.9851C61.4279 94.981 69.5844 94.9851 77.7367 94.9851C80.9411 94.9851 82.0037 96.0232 82.0037 99.1906C82.0119 107.023 82.0037 114.851 82.0037 122.684V124.382H104.922V19.7675H91.8506C91.8506 20.4158 91.8506 20.9656 91.8506 21.5195C91.8506 28.3261 91.867 35.1327 91.8465 41.9435C91.8259 48.3562 87.801 52.3606 81.3514 52.3729C70.8891 52.3893 60.4268 52.3852 49.9645 52.3729C43.4164 52.3647 39.4038 48.3808 39.3915 41.8696C39.3751 35.063 39.3915 28.2563 39.3915 21.4456C39.3915 20.8999 39.3915 20.3543 39.3915 19.7716H26.2952V124.374V124.37ZM85.3147 26.3485C85.3147 21.0271 85.3229 15.7057 85.3147 10.3802C85.3065 7.7626 84.0757 6.53995 81.4334 6.53995C70.9219 6.53174 60.4104 6.53174 49.8989 6.53995C47.15 6.53995 45.9355 7.73388 45.9355 10.45C45.9273 20.941 45.9273 31.432 45.9355 41.923C45.9355 44.639 47.1541 45.8412 49.8948 45.8453C60.353 45.8535 70.8152 45.8494 81.2734 45.8453C84.1208 45.8453 85.3147 44.6637 85.3188 41.8532C85.327 36.6836 85.3188 31.514 85.3188 26.3485H85.3147ZM19.5829 124.415V52.4837H6.63431V124.415H19.5829ZM111.667 52.4509V124.362H124.595V52.4509H111.667ZM55.8193 124.366H75.3735V101.628H55.8193V124.366Z" fill="#3FC380"/>
<path id="Vector_2" d="M46.0709 68.8005C44.996 68.8005 43.9169 68.8457 42.8461 68.7923C40.7249 68.6897 39.3874 67.3645 39.412 65.4567C39.4325 63.6145 40.7413 62.3016 42.7887 62.2278C44.8852 62.1539 46.9859 62.1539 49.0824 62.2278C51.138 62.3016 52.4263 63.6186 52.4427 65.4731C52.455 67.3276 51.1749 68.6487 49.144 68.78C48.1265 68.8457 47.0966 68.7923 46.075 68.7923C46.075 68.7923 46.075 68.7964 46.075 68.8005H46.0709Z" fill="#3FC380"/>
<path id="Vector_3" d="M65.6087 62.2158C66.6837 62.2158 67.7627 62.1625 68.8336 62.2281C70.8686 62.3553 72.1487 63.6723 72.1364 65.5268C72.1241 67.3238 70.885 68.6737 68.9361 68.7639C66.7411 68.8665 64.5338 68.8624 62.3346 68.7639C60.3776 68.6778 59.1303 67.3403 59.1057 65.5514C59.0811 63.6928 60.3612 62.3594 62.3839 62.224C63.4547 62.1543 64.5338 62.2117 65.6087 62.2117V62.2158Z" fill="#3FC380"/>
<path id="Vector_4" d="M85.3229 62.2281C86.4471 62.2281 87.5795 62.1543 88.6996 62.2446C90.6361 62.4046 91.8506 63.7421 91.8301 65.5473C91.8095 67.2911 90.632 68.645 88.757 68.7394C86.4594 68.8583 84.1495 68.8583 81.8519 68.7394C79.9851 68.6409 78.8117 67.2746 78.7953 65.5309C78.783 63.7298 80.0097 62.3964 81.9422 62.2404C83.0623 62.1502 84.1946 62.224 85.3188 62.2281H85.3229Z" fill="#3FC380"/>
<path id="Vector_5" d="M45.8986 85.1508C44.7744 85.1508 43.642 85.2082 42.522 85.1385C40.6593 85.0236 39.3833 83.6245 39.412 81.8193C39.4407 80.0591 40.6675 78.7339 42.5015 78.6765C44.8032 78.6026 47.109 78.6026 49.4066 78.6847C51.2282 78.7503 52.4386 80.1125 52.4427 81.8808C52.4427 83.6204 51.2118 85.0031 49.4271 85.1303C48.2578 85.2123 47.0761 85.1467 45.8986 85.1467C45.8986 85.1467 45.8986 85.1508 45.8986 85.1549V85.1508Z" fill="#3FC380"/>
<path id="Vector_6" d="M65.6128 85.1547C64.5379 85.1547 63.4629 85.1917 62.388 85.1465C60.4104 85.0645 59.0852 83.6982 59.1057 81.8355C59.1262 80.018 60.394 78.7133 62.3305 78.6599C64.5297 78.5984 66.7329 78.5984 68.932 78.6599C70.8645 78.7133 72.1282 80.0303 72.1405 81.8519C72.1528 83.6531 70.8686 85.0276 68.9936 85.1342C67.8694 85.1958 66.7411 85.1465 65.6169 85.1506L65.6128 85.1547Z" fill="#3FC380"/>
<path id="Vector_7" d="M85.3722 78.6557C86.4963 78.6557 87.6246 78.6024 88.7488 78.668C90.5253 78.7665 91.7357 79.9932 91.8259 81.6754C91.9162 83.4314 90.7633 84.9946 89.0155 85.0931C86.5661 85.2285 84.1003 85.2244 81.6509 85.1013C79.9031 85.011 78.7296 83.4642 78.8035 81.7164C78.8732 80.0301 80.0795 78.7788 81.8437 78.6762C83.0171 78.6065 84.1946 78.6639 85.3722 78.6598V78.6557Z" fill="#3FC380"/>
<path id="Vector_8" d="M62.3182 22.8979C62.3182 20.6577 62.2608 18.6227 62.3346 16.5918C62.429 14.0111 64.6404 12.4356 66.8396 13.3505C68.3494 13.9783 68.9197 15.2337 68.9238 16.7928C68.932 18.7704 68.9238 20.748 68.9238 22.902C71.1312 22.902 73.1662 22.8486 75.1971 22.9143C77.8065 23.0004 79.3861 25.1585 78.4958 27.3782C77.8886 28.8962 76.6372 29.4747 75.074 29.4953C73.1292 29.5199 71.1845 29.5404 69.2397 29.565C69.1987 29.565 69.1618 29.6183 68.9197 29.7948C68.9197 31.6698 68.969 33.6966 68.9074 35.7234C68.8254 38.2918 66.8314 39.8262 64.6117 39.1124C63.1921 38.6569 62.3593 37.463 62.3223 35.6701C62.2813 33.6843 62.3141 31.7026 62.3141 29.4953C60.1642 29.4953 58.1374 29.5404 56.1106 29.483C53.4766 29.4091 51.8847 27.3207 52.7176 25.0847C53.292 23.5461 54.5228 22.9266 56.086 22.9061C58.0759 22.8815 60.0699 22.902 62.3182 22.902V22.8979Z" fill="#3FC380"/>
</g>
<defs>
<clipPath id="clip0_355_17051">
<rect width="131.242" height="131" fill="white"/>
</clipPath>
</defs>
</svg>
