<svg width="131" height="131" viewBox="0 0 131 131" fill="none" xmlns="http://www.w3.org/2000/svg">
<g id="building/hospital">
<path id="Vector" d="M120.083 124.177H10.9167C8.67876 124.177 6.82292 122.321 6.82292 120.083C6.82292 117.845 8.67876 115.99 10.9167 115.99H120.083C122.321 115.99 124.177 117.845 124.177 120.083C124.177 122.321 122.321 124.177 120.083 124.177Z" fill="#3FC380"/>
<path id="Vector_2" d="M114.625 124.177H16.375C14.1371 124.177 12.2812 122.321 12.2812 120.083V32.7501C12.2812 16.2659 21.7242 6.823 38.2083 6.823H92.7917C109.276 6.823 118.719 16.2659 118.719 32.7501V120.083C118.719 122.321 116.863 124.177 114.625 124.177ZM20.4688 115.99H110.531V32.7501C110.531 20.6326 104.909 15.0105 92.7917 15.0105H38.2083C26.0908 15.0105 20.4688 20.6326 20.4688 32.7501V115.99Z" fill="#3FC380"/>
<path id="Vector_3" d="M81.875 124.177H49.125C46.8871 124.177 45.0312 122.321 45.0312 120.083V87.0058C45.0312 81.9296 49.1796 77.7812 54.2558 77.7812H76.7988C81.875 77.7812 86.0233 81.9296 86.0233 87.0058V120.083C85.9688 122.321 84.1129 124.177 81.875 124.177ZM53.2188 115.99H77.7813V87.0058C77.7813 86.46 77.3446 85.9688 76.7442 85.9688H54.2012C53.6554 85.9688 53.1642 86.4054 53.1642 87.0058V115.99H53.2188Z" fill="#3FC380"/>
<path id="Vector_4" d="M65.5 64.1354C63.2621 64.1354 61.4062 62.2796 61.4062 60.0417V32.75C61.4062 30.5121 63.2621 28.6562 65.5 28.6562C67.7379 28.6562 69.5938 30.5121 69.5938 32.75V60.0417C69.5938 62.2796 67.7379 64.1354 65.5 64.1354Z" fill="#3FC380"/>
<path id="Vector_5" d="M79.1458 50.4895H51.8542C49.6163 50.4895 47.7604 48.6337 47.7604 46.3958C47.7604 44.1578 49.6163 42.302 51.8542 42.302H79.1458C81.3838 42.302 83.2396 44.1578 83.2396 46.3958C83.2396 48.6337 81.3838 50.4895 79.1458 50.4895Z" fill="#3FC380"/>
</g>
</svg>
