<svg width="60" height="61" viewBox="0 0 60 61" fill="none" xmlns="http://www.w3.org/2000/svg">
<g id="nephrology">
<path id="Vector" fill-rule="evenodd" clip-rule="evenodd" d="M7.5 11.75C7.5 9.67894 9.17894 8 11.25 8H48.75C50.8211 8 52.5 9.67894 52.5 11.75V49.25C52.5 51.3211 50.8211 53 48.75 53H33.5605V34.7031C33.5605 33.6347 33.9465 33.2604 34.1623 33.1068C34.3006 33.0082 34.4434 32.9518 34.5524 32.9209C34.6054 32.9059 34.6454 32.8984 34.6653 32.8951L34.6772 32.8934L34.6688 32.8942L34.6606 32.8949L34.6555 32.8954L34.6526 32.8955L34.6511 32.8956C34.6511 32.8956 34.6496 32.8958 34.5639 31.6486C34.4781 30.4016 34.4765 30.4018 34.4765 30.4018L34.4749 30.4019L34.4714 30.4021L34.4637 30.4026L34.4459 30.4043C34.4329 30.4054 34.4174 30.4069 34.3999 30.4089C34.3646 30.4127 34.3205 30.4185 34.2688 30.4269C34.1655 30.4434 34.0294 30.4706 33.8711 30.5155C33.5576 30.6042 33.137 30.7678 32.712 31.0704C31.8011 31.7191 31.0605 32.872 31.0605 34.7031V53H28.765V34.7031C28.765 32.872 28.0244 31.7191 27.1134 31.0704C26.6884 30.7678 26.2679 30.6042 25.9544 30.5155C25.7961 30.4706 25.66 30.4434 25.5568 30.4269C25.5049 30.4185 25.4608 30.4127 25.4256 30.4089C25.408 30.4069 25.3926 30.4054 25.3795 30.4043L25.3616 30.4026L25.354 30.4021L25.3506 30.4019L25.349 30.4018C25.349 30.4018 25.3474 30.4016 25.2616 31.6486C25.1759 32.8958 25.1744 32.8956 25.1744 32.8956L25.1729 32.8955L25.17 32.8954L25.1649 32.8949L25.1566 32.8942L25.1483 32.8934L25.1601 32.8951C25.1801 32.8984 25.2201 32.9059 25.2731 32.9209C25.382 32.9518 25.5249 33.0082 25.6632 33.1068C25.8789 33.2604 26.265 33.6347 26.265 34.7031V53H11.25C9.17894 53 7.5 51.3211 7.5 49.25V11.75ZM41.2054 39.5595C51.9841 35.0134 47.7302 19.6683 40.2479 17.1329C37.144 16.081 33.7189 19.5704 33.7409 21.737C33.7504 22.6737 34.2337 23.5871 34.7374 24.5388C35.3985 25.788 36.0946 27.1033 35.799 28.6239C35.2782 31.3027 34.695 35.8228 36.1979 37.9684C37.7009 40.1139 39.2122 40.4002 41.2054 39.5595ZM18.6201 39.5595C7.84135 35.0134 12.0952 19.6683 19.5775 17.1329C22.6815 16.081 26.1065 19.5704 26.0846 21.737C26.0751 22.6737 25.5917 23.5871 25.0881 24.5388C24.427 25.788 23.7309 27.1033 24.0265 28.6239C24.5471 31.3027 25.1305 35.8228 23.6275 37.9684C22.1246 40.1139 20.6132 40.4002 18.6201 39.5595Z" fill="#3FC380"/>
</g>
</svg>
