<svg width="60" height="61" viewBox="0 0 60 61" fill="none" xmlns="http://www.w3.org/2000/svg">
<g id="oncology">
<path id="Vector" fill-rule="evenodd" clip-rule="evenodd" d="M7.5 11.75C7.5 9.67894 9.17894 8 11.25 8H48.75C50.8211 8 52.5 9.67894 52.5 11.75V49.25C52.5 51.3211 50.8211 53 48.75 53H11.25C9.17894 53 7.5 51.3211 7.5 49.25V11.75ZM24.099 34.4164L29.1245 40.9109L24.099 47.328L17.7591 42.4571L24.099 34.4164ZM23.867 15.0103L21.161 18.5667C18.9961 21.4274 18.9961 25.3705 21.161 28.1537L36.2375 47.328L42.5 42.4571L36.4694 34.7256L29.2018 25.4478L26.1091 22.7546C26.6504 22.4454 27.2689 22.2135 27.8874 22.2135H32.449C33.0675 22.2135 33.686 22.3681 34.2272 22.6774C34.2272 22.7546 34.3046 22.7546 34.3046 22.7546L31.212 25.4478L36.2375 31.9422L39.1755 28.2311C41.3403 25.4478 41.3403 21.5046 39.1755 18.644L36.3921 15.0103C35.9283 14.3916 35.3096 13.8505 34.6139 13.5412C33.918 13.1546 33.1449 13 32.3717 13H27.8874C26.3411 13 24.8721 13.7731 23.867 15.0103ZM25.0268 20.1516C25.0074 20.113 24.9881 20.0744 24.9494 20.0358C24.099 18.7986 24.2536 18.3477 25.1041 17.188C25.7999 16.3375 26.805 15.7963 27.8874 15.7963H32.3717C32.9129 15.7963 33.4541 15.9509 33.918 16.1829C34.3819 16.4149 34.8458 16.8014 35.155 17.188C35.5416 17.6519 35.7736 18.1931 35.8509 18.7343C36.0142 19.3878 35.9091 19.4979 35.6436 19.7759C35.5321 19.8926 35.3924 20.039 35.2324 20.2676C35.155 20.229 35.0584 20.171 34.9618 20.113C34.8651 20.055 34.7685 19.997 34.6911 19.9584C33.9954 19.5717 33.2221 19.4171 32.449 19.4171H27.9647C27.1916 19.4171 26.4184 19.6491 25.7226 19.9584C25.4906 20.0358 25.2587 20.113 25.1041 20.2676C25.0654 20.229 25.0461 20.1904 25.0268 20.1516Z" fill="#3FC380"/>
</g>
</svg>
