<svg width="60" height="61" viewBox="0 0 60 61" fill="none" xmlns="http://www.w3.org/2000/svg">
<g id="opthalmology">
<path id="Vector" fill-rule="evenodd" clip-rule="evenodd" d="M11.25 8C9.17894 8 7.5 9.67894 7.5 11.75V49.25C7.5 51.3211 9.17894 53 11.25 53H48.75C50.8211 53 52.5 51.3211 52.5 49.25V11.75C52.5 9.67894 50.8211 8 48.75 8H11.25ZM30.0494 19.25C38.4375 19.25 48.75 30.5 48.75 30.5C48.75 30.5 38.4375 41.75 30.0494 41.75C21.6611 41.75 11.25 30.5 11.25 30.5C11.25 30.5 21.6611 19.25 30.0494 19.25ZM14.7871 30.5C15.8464 29.4936 17.3211 28.1716 19.0296 26.8556C19.6747 26.3587 20.3465 25.8678 21.036 25.398C20.1779 26.9025 19.6875 28.644 19.6875 30.5C19.6875 32.356 20.1779 34.0975 21.036 35.602C20.3465 35.1322 19.6747 34.6413 19.0296 34.1444C17.3211 32.8284 15.8464 31.5064 14.7871 30.5ZM40.3125 30.5C40.3125 28.6147 39.8066 26.8477 38.9232 25.3271C39.6424 25.8167 40.3425 26.3304 41.0131 26.8505C42.7131 28.1689 44.1784 29.4932 45.2287 30.5C44.1784 31.5066 42.7131 32.8311 41.0131 34.1495C40.3425 34.6696 39.6424 35.1833 38.9232 35.6729C39.8066 34.1523 40.3125 32.3853 40.3125 30.5ZM30 38.3125C34.3148 38.3125 37.8125 34.8148 37.8125 30.5C37.8125 26.1852 34.3148 22.6875 30 22.6875C25.6852 22.6875 22.1875 26.1852 22.1875 30.5C22.1875 34.8148 25.6852 38.3125 30 38.3125ZM34.6875 30.5C34.6875 33.0889 32.5889 35.1875 30 35.1875C27.4111 35.1875 25.3125 33.0889 25.3125 30.5C25.3125 27.9111 27.4111 25.8125 30 25.8125C31.164 25.8125 32.2289 26.2367 33.0485 26.939C32.8413 26.8189 32.6005 26.75 32.3438 26.75C31.5671 26.75 30.9375 27.3796 30.9375 28.1562C30.9375 28.9329 31.5671 29.5625 32.3438 29.5625C33.1204 29.5625 33.75 28.9329 33.75 28.1562C33.75 27.8995 33.6811 27.6587 33.561 27.4515C34.2633 28.2711 34.6875 29.336 34.6875 30.5Z" fill="#3FC380"/>
</g>
</svg>
