<svg width="60" height="61" viewBox="0 0 60 61" fill="none" xmlns="http://www.w3.org/2000/svg">
<g id="orthopaedics">
<path id="Vector" fill-rule="evenodd" clip-rule="evenodd" d="M11.25 8C9.17894 8 7.5 9.67894 7.5 11.75V49.25C7.5 51.3211 9.17894 53 11.25 53H48.75C50.8211 53 52.5 51.3211 52.5 49.25V11.75C52.5 9.67894 50.8211 8 48.75 8H11.25ZM21.5625 15.4224C21.5625 14.656 22.2679 14.0844 23.0211 14.2254C28.2605 15.2055 31.7375 15.2172 36.9777 14.2286C37.731 14.0865 38.4375 14.6575 38.4375 15.4241C38.4375 16.0911 38.9783 16.6318 39.6452 16.6318H40C40.6904 16.6318 41.25 17.1914 41.25 17.8818V18.9742C41.25 19.6645 40.6904 20.2242 40 20.2242H39.6875C38.9971 20.2242 38.4375 20.7839 38.4375 21.4742V21.9579C38.4375 22.5244 38.055 23.022 37.5055 23.1594C31.9235 24.5554 28.3457 24.554 22.508 23.1525C21.9521 23.0191 21.5625 22.5184 21.5625 21.9468V21.4742C21.5625 20.7839 21.0029 20.2242 20.3125 20.2242H20C19.3096 20.2242 18.75 19.6645 18.75 18.9742V17.8818C18.75 17.1914 19.3096 16.6318 20 16.6318H20.3531C21.021 16.6318 21.5625 16.0902 21.5625 15.4224ZM24.375 16.4221C25.0654 16.4221 25.625 16.9818 25.625 17.6721V20.4724C25.625 21.1627 25.0654 21.7224 24.375 21.7224C23.6846 21.7224 23.125 21.1627 23.125 20.4724V17.6721C23.125 16.9818 23.6846 16.4221 24.375 16.4221ZM23.0211 25.4754C22.2679 25.3344 21.5625 25.906 21.5625 26.6724C21.5625 27.3403 21.021 27.8817 20.3531 27.8817H20C19.3096 27.8817 18.75 28.4414 18.75 29.1317V30.2243C18.75 30.9145 19.3096 31.4743 20 31.4743H20.3125C21.0029 31.4743 21.5625 32.0339 21.5625 32.7243V33.1968C21.5625 33.7684 21.9521 34.2691 22.508 34.4025C28.3457 35.804 31.9235 35.8054 37.5055 34.4094C38.055 34.272 38.4375 33.7744 38.4375 33.2079V32.7243C38.4375 32.0339 38.9971 31.4743 39.6875 31.4743H40C40.6904 31.4743 41.25 30.9145 41.25 30.2243V29.1317C41.25 28.4414 40.6904 27.8817 40 27.8817H39.6452C38.9783 27.8817 38.4375 27.3411 38.4375 26.6741C38.4375 25.9075 37.731 25.3365 36.9777 25.4786C31.7375 26.4673 28.2605 26.4555 23.0211 25.4754ZM25.625 28.9221C25.625 28.2317 25.0654 27.6721 24.375 27.6721C23.6846 27.6721 23.125 28.2317 23.125 28.9221V31.7224C23.125 32.4128 23.6846 32.9724 24.375 32.9724C25.0654 32.9724 25.625 32.4128 25.625 31.7224V28.9221ZM21.5625 37.9224C21.5625 37.156 22.2679 36.5844 23.0211 36.7254C28.2605 37.7055 31.7375 37.7173 36.9777 36.7286C37.731 36.5865 38.4375 37.1575 38.4375 37.9241C38.4375 38.5911 38.9783 39.1317 39.6452 39.1317H40C40.6904 39.1317 41.25 39.6914 41.25 40.3817V41.4743C41.25 42.1645 40.6904 42.7243 40 42.7243H39.6875C38.9971 42.7243 38.4375 43.2839 38.4375 43.9743V44.4579C38.4375 45.0244 38.055 45.522 37.5055 45.6594C31.9235 47.0554 28.3457 47.054 22.508 45.6525C21.9521 45.5191 21.5625 45.0184 21.5625 44.4467V43.9743C21.5625 43.2839 21.0029 42.7243 20.3125 42.7243H20C19.3096 42.7243 18.75 42.1645 18.75 41.4743V40.3817C18.75 39.6914 19.3096 39.1317 20 39.1317H20.3531C21.021 39.1317 21.5625 38.5903 21.5625 37.9224ZM24.375 38.9221C25.0654 38.9221 25.625 39.4817 25.625 40.1721V42.9724C25.625 43.6628 25.0654 44.2224 24.375 44.2224C23.6846 44.2224 23.125 43.6628 23.125 42.9724V40.1721C23.125 39.4817 23.6846 38.9221 24.375 38.9221Z" fill="#3FC380"/>
</g>
</svg>
