<svg width="60" height="61" viewBox="0 0 60 61" fill="none" xmlns="http://www.w3.org/2000/svg">
<g id="pediatrics">
<path id="Vector" fill-rule="evenodd" clip-rule="evenodd" d="M11.25 8C9.17894 8 7.5 9.67894 7.5 11.75V49.25C7.5 51.3211 9.17894 53 11.25 53H48.75C50.8211 53 52.5 51.3211 52.5 49.25V11.75C52.5 9.67894 50.8211 8 48.75 8H11.25ZM35.0694 18.3472C35.0694 21.3004 32.6754 23.6944 29.7221 23.6944C26.769 23.6944 24.375 21.3004 24.375 18.3472C24.375 15.394 26.769 13 29.7221 13C32.6754 13 35.0694 15.394 35.0694 18.3472ZM34.5834 29.6372C36.285 29.3946 38.0716 29.0275 40.0446 28.5394C41.385 28.2079 42.2028 26.8525 41.8713 25.5122C41.5396 24.1719 40.1844 23.3541 38.844 23.6857C35.1632 24.5962 32.4176 24.9979 29.7315 24.9876C27.0381 24.9774 24.2833 24.5529 20.5731 23.6791C19.2291 23.3626 17.8831 24.1955 17.5666 25.5395C17.25 26.8834 18.083 28.2295 19.4269 28.546C21.3868 29.0075 23.165 29.3673 24.8611 29.612V31.472H34.5834V29.6372ZM24.8611 33.4165V35.3027C24.8611 35.9185 25.4158 37.4999 27.1173 38.2576C27.312 38.3442 27.5309 38.453 27.7276 38.5506L27.8434 38.608C28.085 38.7275 28.319 38.8405 28.5556 38.9408C29.049 39.1497 29.4338 39.2496 29.7222 39.2496C30.0106 39.2496 30.3955 39.1497 30.8889 38.9408C31.1255 38.8405 31.3594 38.7275 31.6011 38.608L31.7169 38.5506C31.9136 38.453 32.1325 38.3442 32.3272 38.2576C34.0287 37.4999 34.5834 35.9185 34.5834 35.3027V33.4165H24.8611ZM21.531 43.1284C21.531 40.9495 22.3616 39.2985 23.87 37.9855C24.3344 38.7705 25.1064 39.5601 26.2556 40.0825C26.0831 40.2456 25.918 40.4348 25.7619 40.6671C25.2755 41.3911 24.8576 42.2856 24.8576 43.1284C24.8576 43.8988 25.1736 44.5615 25.4131 45.0635L25.4305 45.1003C25.6949 45.655 25.8619 46.0282 25.8619 46.423C25.8619 47.3102 25.0994 47.9996 24.1986 47.9996C23.359 47.9996 22.6947 47.4405 22.2 46.3582C21.7169 45.3014 21.531 43.9974 21.531 43.1284ZM33.1888 40.082C34.338 39.5596 35.11 38.77 35.5744 37.985C37.0827 39.298 37.9134 40.949 37.9134 43.1278C37.9134 43.9969 37.7275 45.3009 37.2444 46.3577C36.7496 47.44 36.0853 47.9991 35.2458 47.9991C34.345 47.9991 33.5824 47.3097 33.5824 46.4224C33.5824 46.0277 33.7495 45.6544 34.0138 45.0996L34.0312 45.063C34.2706 44.5609 34.5868 43.8981 34.5868 43.1278C34.5868 42.285 34.1687 41.3906 33.6825 40.6665C33.5264 40.4341 33.3612 40.2451 33.1888 40.082Z" fill="#3FC380"/>
</g>
</svg>
