<svg width="60" height="61" viewBox="0 0 60 61" fill="none" xmlns="http://www.w3.org/2000/svg">
<g id="psychology">
<path id="Vector" fill-rule="evenodd" clip-rule="evenodd" d="M11.25 8C9.17894 8 7.5 9.67894 7.5 11.75V49.25C7.5 51.3211 9.17894 53 11.25 53H17.9862V38.9525C14.1815 36.1089 11.25 32.278 11.25 27.3123C11.25 23.1849 12.9724 19.2266 16.0384 16.3081C19.1042 13.3896 23.2625 11.75 27.5984 11.75C30.9094 11.7464 34.1813 12.4321 37.1845 13.759C39.5514 14.7077 41.6236 16.2176 43.2038 18.1446C44.6468 20.1691 45.4465 22.5464 45.5074 24.992C45.5205 25.5541 45.5126 26.0871 45.505 26.6028C45.4781 28.4233 45.4544 30.0265 46.3694 31.9228C46.3694 31.9228 49.0742 34.3561 48.7176 36.3085C48.3609 38.2609 44.8385 38.7984 44.8385 38.7984C44.8385 49.31 31.4626 44.9228 31.4626 44.9228V53H48.75C50.8211 53 52.5 51.3211 52.5 49.25V11.75C52.5 9.67894 50.8211 8 48.75 8H11.25Z" fill="#3FC380"/>
<path id="Vector_2" d="M32.8363 28.5683C33.6415 28.5683 33.3862 28.332 34.0512 27.8901C34.7263 28.3311 35.5232 28.5623 36.3362 28.5531L38.919 27.6385C39.6467 27.0546 40.1463 26.2453 40.3342 25.3458C40.5219 24.4463 40.3867 23.5114 39.9508 22.6974C39.5151 21.8834 38.8051 21.2398 37.9399 20.8743C37.7424 20.0034 37.2448 19.2245 36.5297 18.6668L34.0087 17.8081H33.7248C33.1641 17.012 32.3222 16.444 31.3593 16.2123L26.9958 15.9165C26.0973 15.9893 25.2502 16.3539 24.5906 16.9519C24.2788 16.8804 23.96 16.8434 23.6397 16.8414C22.8643 16.843 22.1059 17.0629 21.4563 17.4746C20.8066 17.8863 20.2931 18.4723 19.9781 19.1616L17.9243 20.5774C17.4133 21.2513 17.1382 22.067 17.1396 22.9044C17.1346 23.2546 17.1823 23.6036 17.2815 23.9403C16.7427 24.6206 16.453 25.4568 16.4583 26.3158C16.4571 27.312 16.8482 28.2709 17.5512 28.995C17.608 29.7083 17.864 30.3929 18.2918 30.9746C18.7196 31.5565 19.3027 32.0134 19.9781 32.2959C20.7563 32.7706 21.4152 33.4091 21.9064 34.1644C22.3977 34.9196 22.6005 35.7725 22.7083 36.6601H26.9958V32.5169C26.9948 31.7811 27.2057 31.06 27.6046 30.435C28.0035 29.8101 28.2269 29.3065 28.9051 28.9813C29.5405 28.7446 30.1128 28.3716 30.5797 27.8901C31.2447 28.332 32.0312 28.5683 32.8363 28.5683Z" fill="#3FC380"/>
<path id="Vector_3" d="M40.4166 32.0627C40.4166 32.9256 39.717 33.6252 38.8541 33.6252C37.9911 33.6252 37.2916 32.9256 37.2916 32.0627C37.2916 31.1997 37.9911 30.5002 38.8541 30.5002C39.717 30.5002 40.4166 31.1997 40.4166 32.0627Z" fill="#3FC380"/>
<path id="Vector_4" fill-rule="evenodd" clip-rule="evenodd" d="M26.875 40.9165H22.7084V38.4165H26.875V40.9165Z" fill="#3FC380"/>
<path id="Vector_5" fill-rule="evenodd" clip-rule="evenodd" d="M26.875 45.0833H22.7084V42.5833H26.875V45.0833Z" fill="#3FC380"/>
<path id="Vector_6" fill-rule="evenodd" clip-rule="evenodd" d="M26.875 49.25H22.7084V46.75H26.875V49.25Z" fill="#3FC380"/>
</g>
</svg>
