<svg width="60" height="61" viewBox="0 0 60 61" fill="none" xmlns="http://www.w3.org/2000/svg">
<g id="radiology">
<path id="Vector" fill-rule="evenodd" clip-rule="evenodd" d="M7.5 11.75C7.5 9.67894 9.17894 8 11.25 8H48.75C50.8211 8 52.5 9.67894 52.5 11.75V49.25C52.5 51.3211 50.8211 53 48.75 53H11.25C9.17894 53 7.5 51.3211 7.5 49.25V11.75ZM35.625 18.625C35.625 21.7316 33.1066 24.25 30 24.25C26.8934 24.25 24.375 21.7316 24.375 18.625C24.375 15.5184 26.8934 13 30 13C33.1066 13 35.625 15.5184 35.625 18.625ZM16.25 28C16.25 27.3096 16.8096 26.75 17.5 26.75H42.5C43.1904 26.75 43.75 27.3096 43.75 28V46.75C43.75 47.4404 43.1904 48 42.5 48H36.25C36.25 47.2534 35.9091 46.5754 35.5373 46.0548C35.1488 45.5108 34.6297 45.0025 34.0623 44.569C33.2766 43.9691 32.2816 43.4266 31.25 43.165V39.4331H33C34.2386 39.4331 35.7965 39.9276 37.1397 40.4935C37.7911 40.7679 38.3552 41.043 38.7559 41.2494C38.9557 41.3522 39.1137 41.4374 39.22 41.4959C39.2732 41.525 39.3134 41.5475 39.3394 41.5622L39.3675 41.5782L39.3734 41.5816C39.3732 41.5815 39.3735 41.5816 40 40.5C40.6265 39.4184 40.6264 39.4183 40.6261 39.4181L40.6244 39.4171L40.6209 39.415L40.6094 39.4085L40.5694 39.3857C40.5353 39.3665 40.4865 39.3393 40.4245 39.3051C40.3004 39.2369 40.1224 39.141 39.9004 39.0266C39.4572 38.7985 38.8339 38.4944 38.1102 38.1896C36.7035 37.597 34.7614 36.9331 33 36.9331H31.25V34.25H32.25C33.1861 34.25 34.3557 34.5181 35.3563 34.8213C35.8426 34.9686 36.2636 35.1164 36.562 35.2269C36.7107 35.282 36.8283 35.3275 36.907 35.3586C36.9365 35.3704 36.9605 35.38 36.9786 35.3874C36.9847 35.3898 36.9903 35.392 36.995 35.394L37.0155 35.4023L37.0195 35.404C37.0194 35.4039 37.0193 35.4039 37.5 34.25C37.9807 33.0961 37.9806 33.0961 37.9804 33.096L37.9761 33.0942L37.9671 33.0905L37.9365 33.078C37.9105 33.0674 37.8735 33.0525 37.8264 33.0339C37.7324 32.9967 37.5977 32.9446 37.4303 32.8825C37.0958 32.7586 36.6261 32.5939 36.0812 32.4287C35.0192 32.1069 33.5639 31.75 32.25 31.75H31.25V29.25H28.75V31.75H27.375C25.8745 31.75 24.5096 32.105 23.5392 32.4455C23.0494 32.6174 22.6481 32.7899 22.3654 32.9212C22.2239 32.9871 22.1112 33.0431 22.0314 33.084C21.9915 33.1045 21.9596 33.1212 21.9365 33.1336L21.9081 33.149L21.8989 33.154L21.8955 33.1559L21.8941 33.1566C21.8939 33.1569 21.893 33.1572 22.5 34.25C23.107 35.3428 23.1068 35.3429 23.1065 35.343L23.1154 35.3382C23.1264 35.3324 23.1455 35.3223 23.1722 35.3085C23.2256 35.2811 23.3094 35.2394 23.4198 35.1881C23.641 35.0851 23.9663 34.9451 24.367 34.8045C25.1779 34.52 26.2505 34.25 27.375 34.25H28.75V36.9331H26.5C24.4881 36.9331 22.6684 37.5942 21.3895 38.2181C20.7425 38.5336 20.2143 38.8494 19.8448 39.0882C19.6595 39.208 19.513 39.3092 19.4101 39.3826C19.3586 39.4193 19.318 39.4491 19.2887 39.4707L19.2536 39.4972L19.2425 39.5056L19.2387 39.5086L19.2371 39.5098C19.2369 39.51 19.236 39.5106 20 40.5C20.764 41.4893 20.7638 41.4895 20.7635 41.4898L20.7803 41.4771C20.7968 41.4649 20.824 41.445 20.8614 41.4183C20.9363 41.3649 21.0514 41.2851 21.2021 41.1876C21.5045 40.9922 21.945 40.7286 22.4855 40.465C23.5816 39.9304 25.0119 39.4331 26.5 39.4331H28.75V43.2055C27.7134 43.4875 26.7116 44.0181 25.9084 44.6229C25.3475 45.0451 24.8346 45.5394 24.4506 46.0748C24.0797 46.5918 23.75 47.2588 23.75 48H17.5C16.8096 48 16.25 47.4404 16.25 46.75V28ZM33.713 47.8737C33.7445 47.9524 33.7493 47.993 33.7499 48H26.25C26.2501 47.9971 26.2524 47.9576 26.2847 47.876C26.3195 47.7885 26.3814 47.6722 26.482 47.5319C26.6856 47.2481 27.0029 46.9281 27.412 46.62C28.2347 46.0006 29.237 45.5701 30.0422 45.5005C30.7343 45.5161 31.6992 45.9102 32.5449 46.556C32.9595 46.8725 33.2887 47.208 33.5029 47.5078C33.609 47.6562 33.6754 47.7801 33.713 47.8737Z" fill="#3FC380"/>
</g>
</svg>
