<svg width="160" height="209" viewBox="0 0 160 209" fill="none" xmlns="http://www.w3.org/2000/svg">
<g id="Sehaty Logo Green" clip-path="url(#clip0_331_4915)">
<path id="Vector" d="M136.365 108.297C121.017 80.4958 104.708 53.1501 88.943 25.5666C84.5379 17.9696 79.0418 11.2296 71.2574 6.81406C57.3435 -1.84883 39.8949 -2.08662 25.3312 5.15774C-10.7551 22.0366 -6.98753 76.7199 28.3796 92.2336C34.2026 95.0173 40.4016 96.2309 46.7476 96.2473C69.5657 96.8376 92.9803 93.7423 115.52 98.1209C123.248 99.7034 129.859 104.156 136.365 108.297Z" fill="#3FC380"/>
<path id="Vector_2" d="M23.2349 100.536C38.5872 128.332 54.8916 155.682 70.6607 183.266C75.0658 190.863 80.5619 197.603 88.3463 202.018C102.256 210.681 119.713 210.911 134.273 203.675C170.359 186.8 166.587 132.108 131.224 116.599C113.984 109.088 94.5739 113.999 76.3652 112.917C56.7918 113.315 39.5148 112.909 23.2389 100.536H23.2349Z" fill="#3FC380"/>
</g>
<defs>
<clipPath id="clip0_331_4915">
<rect width="160" height="209" fill="white"/>
</clipPath>
</defs>
</svg>
