<svg width="41" height="34" viewBox="0 0 41 34" fill="none" xmlns="http://www.w3.org/2000/svg">
<path d="M8.9028 28.4907C6.28397 29.8437 4.26529 30.5203 2.80312 30.5203C1.85379 30.5203 1.14452 30.2365 0.664406 29.6582C0.00969939 28.8726 -0.175801 27.5304 0.173376 26.0682C0.3807 25.2171 0.838995 24.0059 1.8647 22.6419C1.28638 22.3473 0.904466 21.9327 0.708054 21.4089C0.260671 20.165 1.02449 18.7464 3.065 17.1097C1.62464 16.3786 0.92629 15.5166 0.92629 14.5018C0.92629 13.3342 1.8647 12.363 3.78518 11.5774C3.04318 11.0209 2.67217 10.3771 2.67217 9.66784C2.67217 8.23839 4.12344 7.13631 7.10236 6.31792C6.80774 5.95783 6.65498 5.5541 6.65498 5.12854C6.65498 4.31015 7.18965 3.6118 8.24809 3.06621C8.97918 2.6843 9.98307 2.35694 11.2488 2.07324C12.8747 1.71315 14.8606 1.46218 17.0103 1.33124C16.9011 1.68042 16.8466 2.0405 16.8466 2.40059V3.54633C15.2098 3.65545 13.6822 3.84095 12.3727 4.09192C10.4523 4.46292 9.47021 4.87757 9.04465 5.13945C9.47021 5.40133 10.4414 5.81598 12.3727 6.18698C13.6822 6.43795 15.2098 6.62345 16.8466 6.73257V8.90401C14.7624 8.77307 12.842 8.5221 11.2488 8.17292C10.8451 8.08563 10.4632 7.98743 10.114 7.88922C8.57545 8.16201 7.25512 8.51119 6.3058 8.88219C5.38921 9.24228 5.04003 9.52598 4.92 9.66784C5.02912 9.78787 5.33465 10.0388 6.05483 10.3444C6.89503 10.7045 8.08442 11.0427 9.49204 11.3264C11.5871 11.7411 14.1186 12.0357 16.8466 12.1666V14.3599C13.6822 14.2071 10.7796 13.858 8.42268 13.3451C7.82254 13.2142 7.26604 13.0723 6.76409 12.9195C3.94885 13.6397 3.27232 14.3272 3.14138 14.5127C3.29415 14.72 4.16709 15.6148 8.18262 16.4222C10.6269 16.9242 13.6276 17.2515 16.8466 17.3934V20.285C16.8466 20.4269 16.8575 20.5578 16.8684 20.6996C16.8793 20.776 16.8902 20.8524 16.9011 20.9288C17.0212 21.6053 17.3376 22.2382 17.8068 22.7511C14.6424 25.1189 11.5762 27.1049 8.9028 28.4907ZM22.859 31.8078C22.859 32.2334 22.6844 32.648 22.3898 32.9427C22.0842 33.2482 21.6805 33.4119 21.2549 33.4119H19.7164C19.2908 33.4119 18.8762 33.2373 18.5816 32.9427C18.2869 32.648 18.1123 32.2334 18.1123 31.8078V30.7276C18.1123 30.302 18.2869 29.8874 18.5816 29.5928C18.8762 29.2981 19.2908 29.1235 19.7164 29.1235H21.2549C21.6805 29.1235 22.0951 29.2981 22.3898 29.5928C22.6844 29.8874 22.859 30.302 22.859 30.7276V31.8078ZM22.859 26.5702C22.859 26.9957 22.6844 27.4104 22.3898 27.705C22.0951 27.9996 21.6805 28.1742 21.2549 28.1742H19.7164C19.2908 28.1742 18.8762 27.9996 18.5816 27.705C18.2869 27.4104 18.1123 26.9957 18.1123 26.5702V25.4899C18.1123 25.0644 18.2869 24.6497 18.5816 24.3551C18.8871 24.0496 19.2908 23.8859 19.7164 23.8859H21.2549C21.6805 23.8859 22.0951 24.0605 22.3898 24.3551C22.6953 24.6606 22.859 25.0644 22.859 25.4899V26.5702ZM22.859 20.285C22.859 20.3505 22.859 20.405 22.8481 20.4705C22.8481 20.4923 22.8481 20.5032 22.8481 20.5251V20.5469C22.8481 20.5796 22.8371 20.6124 22.8371 20.6451C22.8262 20.7106 22.8153 20.7869 22.7935 20.8524L22.7826 20.8961C22.7826 20.907 22.7717 20.9179 22.7717 20.9397C22.7717 20.9506 22.7608 20.9724 22.7499 20.9943C22.7389 21.0161 22.7389 21.027 22.728 21.0488C22.7062 21.1252 22.6735 21.2016 22.6407 21.2671C22.6298 21.278 22.6298 21.2998 22.6189 21.3216C22.6189 21.3325 22.608 21.3325 22.608 21.3434C22.5971 21.3653 22.5862 21.398 22.5644 21.4198C22.5534 21.4526 22.5316 21.4744 22.5098 21.5071C22.488 21.5399 22.4771 21.5617 22.4552 21.5944C22.4334 21.6162 22.4225 21.649 22.4007 21.6817C22.3789 21.7144 22.357 21.7363 22.3352 21.7581C22.3134 21.7799 22.2916 21.8127 22.2697 21.8345C22.2479 21.8563 22.237 21.8672 22.2152 21.889L22.1934 21.9109C22.1715 21.9327 22.1606 21.9545 22.1388 21.9654L22.1279 21.9763C22.1061 21.9981 22.0733 22.0309 22.0406 22.0527C22.0297 22.0636 22.0079 22.0745 21.9969 22.0854C21.8333 22.2273 21.6587 22.3364 21.4732 22.4237C21.4404 22.4346 21.4077 22.4564 21.375 22.4674C21.3422 22.4783 21.2986 22.5001 21.2659 22.511C21.2331 22.5219 21.1895 22.5328 21.1458 22.5547C21.1022 22.5656 21.0694 22.5765 21.0367 22.5874L20.9821 22.5983C20.9712 22.5983 20.9494 22.6092 20.9385 22.6092C20.8512 22.631 20.7639 22.6419 20.6657 22.6529C20.633 22.6529 20.6002 22.6638 20.5675 22.6638C20.5238 22.6638 20.4802 22.6638 20.4366 22.6638C20.3929 22.6638 20.3493 22.6638 20.3056 22.6638C20.2729 22.6638 20.2401 22.6638 20.2074 22.6529C20.1201 22.6419 20.0328 22.631 19.9346 22.6092C19.9237 22.6092 19.9019 22.5983 19.891 22.5983L19.8364 22.5874C19.8037 22.5765 19.76 22.5656 19.7273 22.5547C19.6946 22.5437 19.6509 22.5328 19.6073 22.511C19.5636 22.5001 19.5309 22.4892 19.4981 22.4674C19.4654 22.4564 19.4327 22.4346 19.3999 22.4237C19.3017 22.3692 19.1926 22.3146 19.1053 22.2491C19.0944 22.2382 19.0835 22.2273 19.0617 22.2273L19.0508 22.2164C19.0071 22.1837 18.9635 22.1509 18.9198 22.1182C18.9089 22.1073 18.8871 22.0964 18.8762 22.0854C18.8653 22.0745 18.8434 22.0636 18.8325 22.0527L18.7889 22.0091L18.7452 21.9654C18.7234 21.9436 18.7016 21.9218 18.6798 21.889C18.6579 21.8563 18.6361 21.8345 18.6143 21.8126C18.5925 21.7908 18.5706 21.7581 18.5488 21.7363C18.527 21.7144 18.5052 21.6817 18.4833 21.6599C18.4615 21.6271 18.4397 21.6053 18.4288 21.5726C18.407 21.5399 18.3961 21.518 18.3742 21.4853C18.3633 21.4526 18.3415 21.4307 18.3197 21.398C18.3088 21.3762 18.2869 21.3434 18.276 21.3216C18.276 21.3107 18.2651 21.3107 18.2651 21.2998C18.2542 21.2889 18.2542 21.2671 18.2433 21.2452C18.2106 21.1689 18.1778 21.1034 18.156 21.027C18.1451 21.0052 18.1451 20.9943 18.1342 20.9724C18.1233 20.9506 18.1233 20.9397 18.1123 20.9179C18.1014 20.8961 18.1014 20.8961 18.1014 20.8742L18.0905 20.8306C18.0687 20.7651 18.0578 20.6887 18.0469 20.6233C18.036 20.5905 18.036 20.5578 18.036 20.5251C18.036 20.5141 18.036 20.5032 18.036 20.5032C18.036 20.4814 18.036 20.4705 18.036 20.4487C18.036 20.3832 18.0251 20.3286 18.0251 20.2632V2.36786V2.30239V2.24783V2.226C18.0251 2.20418 18.0251 2.19327 18.0251 2.17145C18.0251 2.13871 18.0251 2.11689 18.036 2.08415C18.036 2.07324 18.036 2.06233 18.036 2.05141C18.036 2.02959 18.0469 1.99686 18.0469 1.97503C18.0469 1.95321 18.0578 1.93139 18.0578 1.90956V1.89865C18.0578 1.88774 18.0687 1.86591 18.0687 1.855C18.0796 1.82227 18.0796 1.78953 18.0905 1.76771C18.0905 1.74589 18.1014 1.72406 18.1014 1.71315C18.1014 1.70224 18.1123 1.6695 18.1233 1.65859C18.1342 1.64768 18.1342 1.62586 18.1451 1.60403C18.156 1.58221 18.156 1.5713 18.1669 1.54947C18.1887 1.49492 18.2106 1.44036 18.2324 1.3858C18.2433 1.36397 18.2433 1.35306 18.2542 1.33124C18.2651 1.2985 18.2869 1.26577 18.3088 1.23303C18.3415 1.17847 18.3742 1.12391 18.407 1.08027C18.4288 1.04753 18.4506 1.02571 18.4724 0.992973L18.4943 0.960237C18.5052 0.949325 18.5161 0.927502 18.527 0.916591C18.5597 0.872943 18.5816 0.840208 18.6143 0.807473L18.647 0.774737C18.6688 0.742002 18.7016 0.720178 18.7234 0.687442L18.7561 0.654707L18.767 0.643796L18.7998 0.61106C18.8325 0.589237 18.8543 0.556502 18.8871 0.534678L18.9307 0.501943C18.9635 0.480119 18.9962 0.458295 19.0289 0.436471C19.0398 0.425559 19.0617 0.414649 19.0726 0.403737L19.1162 0.371002C19.1599 0.349178 19.2035 0.316443 19.2472 0.294619L19.3017 0.261884C19.3236 0.250972 19.3454 0.24006 19.3672 0.229148C19.389 0.218236 19.3999 0.207325 19.4218 0.207325L19.4654 0.185502L19.5309 0.163677C19.5527 0.152765 19.5745 0.141853 19.5963 0.141853C19.6182 0.130942 19.64 0.130942 19.6618 0.12003C19.6946 0.109118 19.7273 0.0982064 19.76 0.0872946L19.8255 0.0654714L19.8473 0.0545589C19.8691 0.0545589 19.891 0.0436481 19.9128 0.0436481C19.9346 0.0436481 19.9673 0.0327357 19.9892 0.0327357H20.0001L20.0765 0.0218249H20.0983C20.1201 0.0218249 20.1528 0.0109124 20.1747 0.0109124C20.1965 0.0109124 20.2183 0.0109118 20.2401 0H20.262C20.2838 0 20.3056 0 20.3274 0H20.5238C20.5457 0 20.5675 0 20.5893 0H20.6111C20.633 0 20.6548 6.6584e-07 20.6766 0.0109124C20.6984 0.0218242 20.7312 0.0218249 20.753 0.0218249H20.7748L20.8512 0.0327357H20.8621C20.8839 0.0327357 20.9167 0.0436481 20.9385 0.0436481C20.9603 0.0545599 20.9821 0.0545589 21.004 0.0545589L21.0258 0.0654714L21.0913 0.0872946C21.124 0.0982064 21.1567 0.109118 21.1895 0.12003C21.2113 0.130942 21.2331 0.130942 21.2549 0.141853C21.2768 0.152765 21.2986 0.152765 21.3204 0.163677L21.3859 0.185502L21.4295 0.207325C21.4514 0.218237 21.4623 0.229148 21.4841 0.229148C21.5059 0.24006 21.5277 0.250972 21.5496 0.261884L21.6041 0.294619C21.6478 0.316443 21.6914 0.349178 21.7351 0.371002L21.7787 0.403737C21.7896 0.414649 21.8114 0.425559 21.8223 0.436471C21.8551 0.458295 21.8878 0.480119 21.9206 0.501943L21.9642 0.534678C21.9969 0.556502 22.0188 0.589237 22.0515 0.61106L22.0842 0.643796L22.0951 0.654707L22.1279 0.687442C22.1497 0.709266 22.1824 0.742002 22.2043 0.774737L22.237 0.807473C22.2697 0.840208 22.3025 0.883855 22.3243 0.916591C22.3352 0.927502 22.3461 0.949325 22.357 0.960237L22.3789 0.992973C22.4007 1.02571 22.4225 1.04753 22.4443 1.08027C22.4771 1.13483 22.5098 1.17847 22.5425 1.23303C22.5644 1.26577 22.5753 1.2985 22.5971 1.33124C22.608 1.35306 22.6189 1.36397 22.6189 1.3858C22.6407 1.44036 22.6626 1.49492 22.6844 1.54947C22.6953 1.5713 22.6953 1.58221 22.7062 1.60403C22.7171 1.62586 22.7171 1.63677 22.728 1.65859C22.7389 1.68042 22.7389 1.70224 22.7499 1.71315C22.7608 1.72406 22.7608 1.7568 22.7608 1.76771C22.7717 1.80045 22.7717 1.83318 22.7826 1.855C22.7826 1.86591 22.7935 1.88774 22.7935 1.89865V1.90956C22.7935 1.93139 22.8044 1.95321 22.8044 1.97503C22.8044 1.99686 22.8153 2.02959 22.8153 2.05141C22.8153 2.06233 22.8153 2.07324 22.8153 2.08415C22.8153 2.11689 22.8262 2.13871 22.8262 2.17145C22.8262 2.19327 22.8262 2.20418 22.8262 2.226V2.24783V2.30239V2.36786L22.859 20.285ZM40.2851 29.6582C39.805 30.2365 39.0957 30.5203 38.1464 30.5203C36.6951 30.5203 34.6655 29.8437 32.0467 28.4907C29.3733 27.1049 26.3071 25.1189 23.1536 22.7402C23.6228 22.2273 23.9392 21.6053 24.0593 20.9179C24.0702 20.8415 24.0811 20.7651 24.092 20.6887C24.1029 20.5469 24.1138 20.4159 24.1138 20.2741V17.3825C27.3437 17.2406 30.3335 16.9023 32.7778 16.4113C36.7824 15.5929 37.6663 14.7091 37.819 14.5018C37.6881 14.3163 37.0116 13.6288 34.1963 12.9086C33.6835 13.0614 33.1379 13.2033 32.5377 13.3342C30.1808 13.8471 27.2782 14.1962 24.1138 14.349V12.1557C26.8418 12.0248 29.3733 11.7302 31.4793 11.3155C32.8869 11.0318 34.0654 10.6935 34.9165 10.3335C35.6476 10.0279 35.9422 9.77696 36.0513 9.65693C35.9204 9.52598 35.5712 9.23137 34.6546 8.87128C33.7053 8.50028 32.385 8.16201 30.8464 7.87831C30.4972 7.97651 30.1153 8.07472 29.7116 8.16201C28.1185 8.51119 26.198 8.76216 24.1138 8.8931V6.69983C25.7506 6.59071 27.2782 6.40522 28.5877 6.15425C30.5081 5.78324 31.4902 5.3686 31.9157 5.10671C31.4902 4.84483 30.519 4.43018 28.5877 4.05918C27.2782 3.80821 25.7506 3.62271 24.1138 3.51359V2.36786C24.1138 2.00777 24.0593 1.64768 23.9501 1.2985C26.0998 1.42944 28.0857 1.68042 29.7116 2.0405C30.9773 2.32421 31.9812 2.65156 32.7123 3.03348C33.7708 3.57906 34.3054 4.27742 34.3054 5.0958C34.3054 5.53227 34.1527 5.9251 33.858 6.28519C36.837 7.10357 38.2882 8.20566 38.2882 9.6351C38.2882 10.3553 37.9172 10.9882 37.1752 11.5447C39.0957 12.3412 40.0341 13.3015 40.0341 14.469C40.0341 15.4838 39.3248 16.3458 37.8954 17.0769C39.9359 18.7137 40.6997 20.1322 40.2524 21.3762C40.0559 21.9109 39.674 22.3146 39.0957 22.6092C40.1214 23.9841 40.5797 25.1844 40.787 26.0355C41.1362 27.5304 40.9507 28.8726 40.2851 29.6582Z" fill="#3FC380"/>
</svg>
