<svg width="46" height="45" viewBox="0 0 46 45" fill="none" xmlns="http://www.w3.org/2000/svg">
<path fill-rule="evenodd" clip-rule="evenodd" d="M4.25 0C2.17894 0 0.5 1.67894 0.5 3.75V41.25C0.5 43.3211 2.17894 45 4.25 45H41.75C43.8211 45 45.5 43.3211 45.5 41.25V3.75C45.5 1.67894 43.8211 0 41.75 0H4.25ZM16.5407 19.7706C17.8337 18.4775 18.2706 16.6525 17.8511 15H17.998C18.6897 15 19.248 15.5589 19.248 16.2479V25.8749C19.036 25.9884 18.8331 26.1129 18.6411 26.2485C17.5037 27.0518 16.75 28.2428 16.75 29.8215C16.75 29.877 16.7506 29.9324 16.752 29.9876L16.7524 30C16.8328 33.0298 18.951 35.536 21.748 36.121V38.75C21.748 39.4404 22.3076 40 22.998 40C23.6884 40 24.248 39.4404 24.248 38.75V36.1219C27.047 35.5384 29.1672 33.0311 29.2476 30C29.2493 29.9408 29.25 29.8811 29.25 29.8215C29.25 27.9755 28.2194 26.6596 26.75 25.8739V16.2479C26.75 15.5589 27.3083 15 28 15H28.147C27.7275 16.6525 28.1642 18.4775 29.4573 19.7706C31.4099 21.7232 34.5758 21.7232 36.5284 19.7706C38.1011 18.1978 39.254 16.0384 39.2479 13.7499C39.254 11.4613 38.1012 9.28575 36.5285 7.713C34.5759 5.76037 31.41 5.76037 29.4574 7.713C28.1601 9.01025 27.7248 10.8433 28.1513 12.5H28C25.9303 12.5 24.25 14.1755 24.25 16.2479V25.0868C23.426 24.971 22.5719 24.9711 21.748 25.087V16.2479C21.748 14.1755 20.0677 12.5 17.998 12.5H17.8467C18.2734 10.8433 17.838 9.01025 16.5406 7.713C14.588 5.76037 11.4221 5.76037 9.4695 7.713C7.89675 9.28575 6.74388 11.4613 6.75 13.7499C6.74388 16.0384 7.89688 18.1978 9.46963 19.7706C11.4223 21.7232 14.5881 21.7232 16.5407 19.7706ZM23 33.75C21.0486 33.75 19.3436 32.1474 19.2537 30H26.7463C26.6564 32.1474 24.9514 33.75 23 33.75ZM15.4981 12.4799C14.804 12.4799 14.2413 11.9173 14.2413 11.2231C14.2413 10.5328 13.6816 9.97313 12.9913 9.97313C12.301 9.97313 11.7413 10.5328 11.7413 11.2231C11.7413 12.1864 12.1039 13.065 12.6999 13.7299C12.1039 14.3949 11.7413 15.2734 11.7413 16.2366C11.7413 16.927 12.301 17.4866 12.9913 17.4866C13.6816 17.4866 14.2413 16.927 14.2413 16.2366C14.2413 15.5426 14.804 14.9799 15.4981 14.9799C16.1884 14.9799 16.7481 14.4202 16.7481 13.7299C16.7481 13.0395 16.1884 12.4799 15.4981 12.4799ZM31.7568 11.2231C31.7568 11.9173 31.194 12.4799 30.5 12.4799C29.8096 12.4799 29.25 13.0395 29.25 13.7299C29.25 14.4202 29.8096 14.9799 30.5 14.9799C31.194 14.9799 31.7568 15.5426 31.7568 16.2366C31.7568 16.927 32.3164 17.4866 33.0068 17.4866C33.6971 17.4866 34.2568 16.927 34.2568 16.2366C34.2568 15.2734 33.8941 14.3949 33.2981 13.7299C33.8941 13.065 34.2568 12.1864 34.2568 11.2231C34.2568 10.5328 33.6971 9.97313 33.0068 9.97313C32.3164 9.97313 31.7568 10.5328 31.7568 11.2231Z" fill="#3FC380"/>
</svg>
