<svg width="40" height="40" viewBox="0 0 40 40" fill="none" xmlns="http://www.w3.org/2000/svg">
<g id="xray">
<path id="Vector" d="M12.7643 27.4068C11.1275 28.2524 9.86581 28.6753 8.95195 28.6753C8.35862 28.6753 7.91533 28.4979 7.61525 28.1365C7.20606 27.6455 7.09012 26.8066 7.30836 25.8927C7.43794 25.3608 7.72437 24.6038 8.36544 23.7513C8.00399 23.5672 7.76529 23.308 7.64253 22.9807C7.36292 22.2032 7.84031 21.3166 9.11562 20.2936C8.2154 19.8367 7.77893 19.2979 7.77893 18.6637C7.77893 17.934 8.36544 17.327 9.56573 16.836C9.10198 16.4882 8.87011 16.0858 8.87011 15.6425C8.87011 14.7491 9.77715 14.0603 11.639 13.5488C11.4548 13.3237 11.3594 13.0714 11.3594 12.8054C11.3594 12.2939 11.6935 11.8575 12.3551 11.5165C12.812 11.2778 13.4394 11.0732 14.2305 10.8959C15.2467 10.6708 16.4879 10.514 17.8314 10.4321C17.7632 10.6504 17.7291 10.8754 17.7291 11.1005V11.8166C16.7061 11.8848 15.7514 12.0007 14.933 12.1575C13.7327 12.3894 13.1189 12.6486 12.8529 12.8123C13.1189 12.9759 13.7259 13.2351 14.933 13.467C15.7514 13.6238 16.7061 13.7398 17.7291 13.808V15.1651C16.4265 15.0833 15.2262 14.9264 14.2305 14.7082C13.9782 14.6536 13.7395 14.5922 13.5213 14.5309C12.5597 14.7014 11.7345 14.9196 11.1411 15.1515C10.5683 15.3765 10.35 15.5538 10.275 15.6425C10.3432 15.7175 10.5342 15.8744 10.9843 16.0653C11.5094 16.2904 12.2528 16.5018 13.1325 16.6791C14.4419 16.9383 16.0241 17.1224 17.7291 17.2042V18.575C15.7514 18.4796 13.9373 18.2613 12.4642 17.9408C12.0891 17.859 11.7413 17.7703 11.4276 17.6748C9.66803 18.1249 9.2452 18.5546 9.16336 18.6705C9.25884 18.8001 9.80443 19.3593 12.3141 19.864C13.8418 20.1777 15.7173 20.3823 17.7291 20.471V22.2782C17.7291 22.3669 17.7359 22.4487 17.7427 22.5374C17.7496 22.5851 17.7564 22.6329 17.7632 22.6806C17.8382 23.1034 18.036 23.499 18.3293 23.8195C16.3515 25.2994 14.4351 26.5406 12.7643 27.4068ZM21.4869 29.48C21.4869 29.746 21.3777 30.0051 21.1936 30.1893C21.0026 30.3802 20.7503 30.4825 20.4843 30.4825H19.5227C19.2568 30.4825 18.9976 30.3734 18.8135 30.1893C18.6293 30.0051 18.5202 29.746 18.5202 29.48V28.8048C18.5202 28.5389 18.6293 28.2797 18.8135 28.0956C18.9976 27.9114 19.2568 27.8023 19.5227 27.8023H20.4843C20.7503 27.8023 21.0095 27.9114 21.1936 28.0956C21.3777 28.2797 21.4869 28.5389 21.4869 28.8048V29.48ZM21.4869 26.2065C21.4869 26.4724 21.3777 26.7316 21.1936 26.9157C21.0095 27.0999 20.7503 27.209 20.4843 27.209H19.5227C19.2568 27.209 18.9976 27.0999 18.8135 26.9157C18.6293 26.7316 18.5202 26.4724 18.5202 26.2065V25.5313C18.5202 25.2653 18.6293 25.0062 18.8135 24.822C19.0044 24.6311 19.2568 24.5288 19.5227 24.5288H20.4843C20.7503 24.5288 21.0095 24.6379 21.1936 24.822C21.3846 25.013 21.4869 25.2653 21.4869 25.5313V26.2065ZM21.4869 22.2782C21.4869 22.3191 21.4869 22.3532 21.48 22.3942C21.48 22.4078 21.48 22.4146 21.48 22.4283V22.4419C21.48 22.4624 21.4732 22.4828 21.4732 22.5033C21.4664 22.5442 21.4596 22.5919 21.4459 22.6329L21.4391 22.6601C21.4391 22.667 21.4323 22.6738 21.4323 22.6874C21.4323 22.6942 21.4255 22.7079 21.4187 22.7215C21.4118 22.7352 21.4118 22.742 21.405 22.7556C21.3914 22.8034 21.3709 22.8511 21.3505 22.892C21.3436 22.8988 21.3436 22.9125 21.3368 22.9261C21.3368 22.9329 21.33 22.9329 21.33 22.9397C21.3232 22.9534 21.3164 22.9739 21.3027 22.9875C21.2959 23.0079 21.2823 23.0216 21.2686 23.042C21.255 23.0625 21.2482 23.0761 21.2345 23.0966C21.2209 23.1102 21.2141 23.1307 21.2004 23.1512C21.1868 23.1716 21.1731 23.1853 21.1595 23.1989C21.1459 23.2125 21.1322 23.233 21.1186 23.2466C21.1049 23.2603 21.0981 23.2671 21.0845 23.2807L21.0708 23.2944C21.0572 23.308 21.0504 23.3217 21.0367 23.3285L21.0299 23.3353C21.0163 23.3489 20.9958 23.3694 20.9754 23.383C20.9685 23.3899 20.9549 23.3967 20.9481 23.4035C20.8458 23.4922 20.7367 23.5604 20.6207 23.6149C20.6003 23.6217 20.5798 23.6354 20.5594 23.6422C20.5389 23.649 20.5116 23.6627 20.4912 23.6695C20.4707 23.6763 20.4434 23.6831 20.4161 23.6968C20.3889 23.7036 20.3684 23.7104 20.3479 23.7172L20.3138 23.724C20.307 23.724 20.2934 23.7309 20.2866 23.7309C20.232 23.7445 20.1774 23.7513 20.1161 23.7581C20.0956 23.7581 20.0751 23.765 20.0547 23.765C20.0274 23.765 20.0001 23.765 19.9728 23.765C19.9456 23.765 19.9183 23.765 19.891 23.765C19.8705 23.765 19.8501 23.765 19.8296 23.7581C19.7751 23.7513 19.7205 23.7445 19.6591 23.7309C19.6523 23.7309 19.6387 23.724 19.6319 23.724L19.5978 23.7172C19.5773 23.7104 19.55 23.7036 19.5296 23.6968C19.5091 23.6899 19.4818 23.6831 19.4545 23.6695C19.4273 23.6627 19.4068 23.6558 19.3863 23.6422C19.3659 23.6354 19.3454 23.6217 19.325 23.6149C19.2636 23.5808 19.1954 23.5467 19.1408 23.5058C19.134 23.499 19.1272 23.4922 19.1135 23.4922L19.1067 23.4853C19.0794 23.4649 19.0522 23.4444 19.0249 23.424C19.0181 23.4171 19.0044 23.4103 18.9976 23.4035C18.9908 23.3967 18.9771 23.3899 18.9703 23.383L18.943 23.3558L18.9158 23.3285C18.9021 23.3148 18.8885 23.3012 18.8748 23.2807C18.8612 23.2603 18.8476 23.2466 18.8339 23.233C18.8203 23.2194 18.8066 23.1989 18.793 23.1853C18.7794 23.1716 18.7657 23.1512 18.7521 23.1375C18.7385 23.1171 18.7248 23.1034 18.718 23.083C18.7044 23.0625 18.6975 23.0489 18.6839 23.0284C18.6771 23.0079 18.6634 22.9943 18.6498 22.9738C18.643 22.9602 18.6293 22.9397 18.6225 22.9261C18.6225 22.9193 18.6157 22.9193 18.6157 22.9125C18.6089 22.9057 18.6089 22.892 18.6021 22.8784C18.5816 22.8306 18.5611 22.7897 18.5475 22.742C18.5407 22.7283 18.5407 22.7215 18.5339 22.7079C18.527 22.6942 18.527 22.6874 18.5202 22.6738C18.5134 22.6601 18.5134 22.6601 18.5134 22.6465L18.5066 22.6192C18.4929 22.5783 18.4861 22.5306 18.4793 22.4896C18.4725 22.4692 18.4725 22.4487 18.4725 22.4283C18.4725 22.4214 18.4725 22.4146 18.4725 22.4146C18.4725 22.401 18.4725 22.3942 18.4725 22.3805C18.4725 22.3396 18.4657 22.3055 18.4657 22.2646V11.08V11.0391V11.005V10.9914C18.4657 10.9777 18.4657 10.9709 18.4657 10.9573C18.4657 10.9368 18.4657 10.9232 18.4725 10.9027C18.4725 10.8959 18.4725 10.8891 18.4725 10.8822C18.4725 10.8686 18.4793 10.8481 18.4793 10.8345C18.4793 10.8209 18.4861 10.8072 18.4861 10.7936V10.7868C18.4861 10.7799 18.4929 10.7663 18.4929 10.7595C18.4998 10.739 18.4998 10.7186 18.5066 10.7049C18.5066 10.6913 18.5134 10.6776 18.5134 10.6708C18.5134 10.664 18.5202 10.6435 18.527 10.6367C18.5339 10.6299 18.5339 10.6163 18.5407 10.6026C18.5475 10.589 18.5475 10.5822 18.5543 10.5685C18.568 10.5344 18.5816 10.5003 18.5952 10.4662C18.6021 10.4526 18.6021 10.4458 18.6089 10.4321C18.6157 10.4117 18.6293 10.3912 18.643 10.3707C18.6634 10.3366 18.6839 10.3025 18.7044 10.2753C18.718 10.2548 18.7316 10.2412 18.7453 10.2207L18.7589 10.2002C18.7657 10.1934 18.7725 10.1798 18.7794 10.173C18.7998 10.1457 18.8135 10.1252 18.8339 10.1048L18.8544 10.0843C18.868 10.0638 18.8885 10.0502 18.9021 10.0297L18.9226 10.0093L18.9294 10.0025L18.9499 9.98201C18.9703 9.96837 18.984 9.94791 19.0044 9.93427L19.0317 9.91381C19.0522 9.90017 19.0726 9.88653 19.0931 9.87289C19.0999 9.86607 19.1135 9.85925 19.1204 9.85243L19.1476 9.83197C19.1749 9.81833 19.2022 9.79787 19.2295 9.78423L19.2636 9.76377C19.2772 9.75696 19.2909 9.75014 19.3045 9.74332C19.3181 9.7365 19.325 9.72968 19.3386 9.72968L19.3659 9.71604L19.4068 9.7024C19.4204 9.69558 19.4341 9.68876 19.4477 9.68876C19.4614 9.68194 19.475 9.68194 19.4886 9.67512C19.5091 9.6683 19.5296 9.66148 19.55 9.65466L19.5909 9.64102L19.6046 9.6342C19.6182 9.6342 19.6319 9.62738 19.6455 9.62738C19.6591 9.62738 19.6796 9.62056 19.6932 9.62056H19.7001L19.7478 9.61374H19.7614C19.7751 9.61374 19.7955 9.60692 19.8092 9.60692C19.8228 9.60692 19.8364 9.60692 19.8501 9.6001H19.8637C19.8774 9.6001 19.891 9.6001 19.9046 9.6001H20.0274C20.041 9.6001 20.0547 9.6001 20.0683 9.6001H20.082C20.0956 9.6001 20.1092 9.6001 20.1229 9.60692C20.1365 9.61374 20.157 9.61374 20.1706 9.61374H20.1843L20.232 9.62056H20.2388C20.2525 9.62056 20.2729 9.62738 20.2866 9.62738C20.3002 9.6342 20.3138 9.6342 20.3275 9.6342L20.3411 9.64102L20.382 9.65466C20.4025 9.66148 20.423 9.6683 20.4434 9.67512C20.4571 9.68194 20.4707 9.68194 20.4843 9.68876C20.498 9.69558 20.5116 9.69558 20.5253 9.7024L20.5662 9.71604L20.5935 9.72968C20.6071 9.7365 20.6139 9.74332 20.6276 9.74332C20.6412 9.75014 20.6548 9.75696 20.6685 9.76377L20.7026 9.78423C20.7298 9.79787 20.7571 9.81833 20.7844 9.83197L20.8117 9.85243C20.8185 9.85925 20.8321 9.86607 20.839 9.87289C20.8594 9.88653 20.8799 9.90017 20.9003 9.91381L20.9276 9.93427C20.9481 9.94791 20.9617 9.96837 20.9822 9.98201L21.0026 10.0025L21.0095 10.0093L21.0299 10.0297C21.0436 10.0434 21.064 10.0638 21.0777 10.0843L21.0981 10.1048C21.1186 10.1252 21.139 10.1525 21.1527 10.173C21.1595 10.1798 21.1663 10.1934 21.1731 10.2002L21.1868 10.2207C21.2004 10.2412 21.2141 10.2548 21.2277 10.2753C21.2482 10.3094 21.2686 10.3366 21.2891 10.3707C21.3027 10.3912 21.3095 10.4117 21.3232 10.4321C21.33 10.4458 21.3368 10.4526 21.3368 10.4662C21.3505 10.5003 21.3641 10.5344 21.3777 10.5685C21.3846 10.5822 21.3846 10.589 21.3914 10.6026C21.3982 10.6163 21.3982 10.6231 21.405 10.6367C21.4118 10.6504 21.4118 10.664 21.4187 10.6708C21.4255 10.6776 21.4255 10.6981 21.4255 10.7049C21.4323 10.7254 21.4323 10.7458 21.4391 10.7595C21.4391 10.7663 21.4459 10.7799 21.4459 10.7868V10.7936C21.4459 10.8072 21.4528 10.8209 21.4528 10.8345C21.4528 10.8481 21.4596 10.8686 21.4596 10.8822C21.4596 10.8891 21.4596 10.8959 21.4596 10.9027C21.4596 10.9232 21.4664 10.9368 21.4664 10.9573C21.4664 10.9709 21.4664 10.9777 21.4664 10.9914V11.005V11.0391V11.08L21.4869 22.2782ZM32.3782 28.1365C32.0781 28.4979 31.6348 28.6753 31.0415 28.6753C30.1344 28.6753 28.8659 28.2524 27.2292 27.4068C25.5583 26.5406 23.6419 25.2994 21.671 23.8127C21.9642 23.4922 22.162 23.1034 22.237 22.6738C22.2439 22.626 22.2507 22.5783 22.2575 22.5306C22.2643 22.4419 22.2711 22.3601 22.2711 22.2714V20.4641C24.2898 20.3755 26.1585 20.1641 27.6861 19.8572C30.189 19.3457 30.7414 18.7933 30.8369 18.6637C30.755 18.5478 30.3322 18.1181 28.5727 17.668C28.2522 17.7635 27.9112 17.8521 27.5361 17.934C26.063 18.2545 24.2489 18.4727 22.2711 18.5682V17.1974C23.9761 17.1156 25.5583 16.9315 26.8745 16.6723C27.7543 16.495 28.4909 16.2836 29.0228 16.0585C29.4797 15.8676 29.6639 15.7107 29.7321 15.6357C29.6502 15.5538 29.432 15.3697 28.8591 15.1446C28.2658 14.9128 27.4406 14.7014 26.479 14.524C26.2608 14.5854 26.0221 14.6468 25.7697 14.7014C24.774 14.9196 23.5737 15.0764 22.2711 15.1583V13.7875C23.2941 13.7193 24.2489 13.6034 25.0673 13.4465C26.2676 13.2146 26.8814 12.9555 27.1473 12.7918C26.8814 12.6281 26.2744 12.369 25.0673 12.1371C24.2489 11.9802 23.2941 11.8643 22.2711 11.7961V11.08C22.2711 10.855 22.237 10.6299 22.1688 10.4117C23.5124 10.4935 24.7536 10.6504 25.7697 10.8754C26.5608 11.0527 27.1883 11.2573 27.6452 11.496C28.3067 11.837 28.6409 12.2735 28.6409 12.785C28.6409 13.0578 28.5454 13.3033 28.3613 13.5283C30.2231 14.0398 31.1301 14.7286 31.1301 15.622C31.1301 16.0721 30.8983 16.4677 30.4345 16.8155C31.6348 17.3134 32.2213 17.9135 32.2213 18.6432C32.2213 19.2775 31.778 19.8163 30.8846 20.2732C32.1599 21.2962 32.6373 22.1827 32.3577 22.9602C32.235 23.2944 31.9963 23.5467 31.6348 23.7309C32.2759 24.5902 32.5623 25.3403 32.6919 25.8723C32.9101 26.8066 32.7942 27.6455 32.3782 28.1365Z" fill="#0D2D2F"/>
</g>
</svg>
